<?xml version="1.0" encoding="UTF-8" standalone="no"?>
<svg width="38px" height="34px" viewBox="0 0 38 34" version="1.1" xmlns="http://www.w3.org/2000/svg" xmlns:xlink="http://www.w3.org/1999/xlink">
    <!-- Generator: Sketch 3.7 (28169) - http://www.bohemiancoding.com/sketch -->
    <title>logo ateliers</title>
    <desc>Created with Sketch.</desc>
    <defs></defs>
    <g id="Accueil" stroke="none" stroke-width="1" fill="none" fill-rule="evenodd">
        <g id="Deskopt-HD" transform="translate(-1187.000000, -92.000000)" fill="#CCCCCC">
            <g id="NAVIGATION-+-TOP" transform="translate(0.000000, -1.000000)">
                <g id="Navigations" transform="translate(615.000000, 85.000000)">
                    <g id="Ateliers" transform="translate(559.000000, 8.000000)">
                        <g id="logo-ateliers" transform="translate(13.000000, 0.000000)">
                            <path d="M16.8934688,5.54497904 C16.9905645,5.21859736 17.101698,4.89338551 17.2350583,4.57519262 C17.5778175,3.75631386 18.0328802,3.00411523 18.5733401,2.32912516 L8.26599618,6.55219992 C9.42178506,6.72767394 10.5050447,7.15232107 11.461963,7.77115945 L16.8934688,5.54497904 L16.8934688,5.54497904 Z" id="Shape"></path>
                            <path d="M25.8648706,0 C24.8295739,0 23.7802392,0.196530903 22.7636597,0.612989244 C18.5780194,2.32678551 16.575276,7.10903748 18.2902421,11.2946778 C18.7289271,12.3650693 19.3805206,13.2775342 20.1584555,14.0379216 L26.9996026,14.0379216 L27.0253388,14.0379216 L31.5853237,14.0379216 C31.5888331,14.0379216 31.5923426,14.0390915 31.5970219,14.0390915 C33.9039204,11.7766464 34.7450259,8.2624867 33.4453483,5.08757676 C32.1468405,1.91851596 29.0889133,0 25.8648706,0 L25.8648706,0 Z M23.0736638,4.45820994 L24.3417561,7.55357166 L21.2463944,8.82049409 C21.0182782,7.14179263 21.7178346,5.47127995 23.0736638,4.45820994 L23.0736638,4.45820994 Z M22.1331231,10.9846737 L25.2284848,9.71775125 L26.4965771,12.8119431 C24.8190454,13.0388895 23.1473629,12.3405029 22.1331231,10.9846737 L22.1331231,10.9846737 Z M26.5059357,6.66450329 L25.2390133,3.5703114 C26.9165449,3.34219517 28.5870576,4.04058177 29.6012974,5.39758087 L26.5059357,6.66450329 L26.5059357,6.66450329 Z M28.6607567,11.9240446 L27.3926644,8.82868288 L30.4880261,7.56176045 C30.7149725,9.23929208 30.0154161,10.9109746 28.6607567,11.9240446 L28.6607567,11.9240446 Z" id="Shape"></path>
                            <path d="M11.5929836,14.0379216 L14.0145251,14.0379216 C13.9536941,13.3500635 13.7910882,12.6586958 13.515009,11.9860454 C12.4025038,9.26970758 9.78209172,7.6249311 7.01662116,7.6249311 C6.13106227,7.6249311 5.23029563,7.79455598 4.35994449,8.15018333 C0.773255516,9.61948579 -0.944050229,13.7185589 0.525252234,17.3052479 C1.47866108,19.6332032 3.5398959,21.1645065 5.84913401,21.5587381 L5.84913401,18.4633764 C5.10395434,18.2352602 4.43715306,17.7942355 3.93061806,17.1753971 L6.09011833,16.291008 C6.59665334,14.9761227 7.86474559,14.0379216 9.35861442,14.0379216 L11.5929836,14.0379216 L11.5929836,14.0379216 Z M3.04505917,15.0100477 C2.92456701,13.6893132 3.46502699,12.3989943 4.49096509,11.5578888 L5.49467649,14.0075061 L3.04505917,15.0100477 L3.04505917,15.0100477 Z M6.6563145,10.6711601 C7.97704896,10.5494981 9.26853775,11.0899581 10.1096432,12.1158962 L7.65885607,13.1196076 L6.6563145,10.6711601 L6.6563145,10.6711601 Z" id="Shape"></path>
                            <rect id="Rectangle-path" x="11.698268" y="23.396536" width="11.698268" height="4.67930721"></rect>
                            <path d="M31.5853237,15.2077484 L9.35861442,15.2077484 C8.06829545,15.2077484 7.01896081,16.2570831 7.01896081,17.547402 L7.01896081,31.5853237 C7.01896081,32.8756426 8.06829545,33.9249773 9.35861442,33.9249773 L31.5853237,33.9249773 C32.8756426,33.9249773 33.9249773,32.8756426 33.9249773,31.5853237 L33.9249773,17.547402 C33.9249773,16.2570831 32.8756426,15.2077484 31.5853237,15.2077484 L31.5853237,15.2077484 Z M24.5663628,28.0758433 C24.5663628,28.7227575 24.0434503,29.2456701 23.396536,29.2456701 L11.698268,29.2456701 C11.0513538,29.2456701 10.5284412,28.7227575 10.5284412,28.0758433 L10.5284412,23.396536 C10.5284412,22.7496218 11.0513538,22.2267092 11.698268,22.2267092 L23.396536,22.2267092 C24.0434503,22.2267092 24.5663628,22.7496218 24.5663628,23.396536 L24.5663628,28.0758433 L24.5663628,28.0758433 Z" id="Shape"></path>
                            <path d="M36.2646309,17.547402 L35.0948041,17.547402 L35.0948041,25.7361896 L36.2646309,25.7361896 C36.9115451,25.7361896 37.4344577,25.2132771 37.4344577,24.5663628 L37.4344577,18.7172288 C37.4344577,18.0703146 36.9115451,17.547402 36.2646309,17.547402 L36.2646309,17.547402 Z" id="Shape"></path>
                        </g>
                    </g>
                </g>
            </g>
        </g>
    </g>
</svg>