<svg id="Sur_Un_Baobab" data-name="Sur Un Baobab" xmlns="http://www.w3.org/2000/svg" viewBox="0 0 605.26 161.21"><title>baobabtest</title><path d="M65.73,357.87a5.44,5.44,0,0,0-1.1-3.9,13.06,13.06,0,0,0-3.9-3.7,13.88,13.88,0,0,0-4.95-2,5.92,5.92,0,0,0-4,.45q-2.2,1.3-3.3,7.4-0.1.8-1,9.7a19.8,19.8,0,0,0,.7,7.7,23.86,23.86,0,0,0,2.35,5.85q1.35,2.25,3.95,5.75,2.4,3.1,3.35,4.5t2.7,4.45a26.49,26.49,0,0,1,2.6,6.15,32.17,32.17,0,0,1,1,6.7q0,0.5.1,1.7c0.07,0.8.12,1.43,0.15,1.9s0,1.07,0,1.8a19.82,19.82,0,0,1-.1,2,16.6,16.6,0,0,1-.3,1.85,13.59,13.59,0,0,1-6.1,8.7q-3.6,2.3-9.9,2.8l-0.7.1a6.43,6.43,0,0,1-1,.1,6.88,6.88,0,0,1-1.1.1,3.24,3.24,0,0,1-1.2-.2q-3.4-1.3-3.9-6.7a12.07,12.07,0,0,1,1.1-7.3,1.2,1.2,0,0,1,1.85-.55,1.26,1.26,0,0,1,.55,1.95,9.94,9.94,0,0,0-.7,5.7q0.3,3.5,2.1,4.3h0.2a4.42,4.42,0,0,0,.8-0.1,6.45,6.45,0,0,0,1-.1,6,6,0,0,1,.8-0.1q5.6-.5,8.6-2.4a10.35,10.35,0,0,0,4.8-6.9,9,9,0,0,0,.35-2.2q0-1.2.05-1.75t-0.15-2.4q-0.15-1.85-.15-2.15a30.83,30.83,0,0,0-.95-6.1,23.66,23.66,0,0,0-2.35-5.6q-1.6-2.8-2.6-4.2l-3.3-4.5q-2-2.7-3.15-4.45a37.22,37.22,0,0,1-2.45-4.5A20.47,20.47,0,0,1,44.78,372a27.08,27.08,0,0,1-.15-6.4q0.8-8.6,1-10,1.3-7.4,4.7-9.3a9.51,9.51,0,0,1,5.95-.85,16,16,0,0,1,6,2.5,17,17,0,0,1,4.8,4.7,8,8,0,0,1,1.45,5.65,1.46,1.46,0,0,1-.55.95,1.28,1.28,0,0,1-1,.25,1.45,1.45,0,0,1-.95-0.55A1.28,1.28,0,0,1,65.73,357.87Z" transform="translate(-40.01 -345.27)" style="fill:#991414"/><path d="M52.42,506.49a5.72,5.72,0,0,1-2.13-.38c-2.18-.83-4.93-3-5.46-8.79a14.48,14.48,0,0,1,1.4-8.74,3.66,3.66,0,0,1,2.16-1.9,4.2,4.2,0,0,1,5,2.61,3.92,3.92,0,0,1-.39,3.08,7.79,7.79,0,0,0-.42,4.24,5.93,5.93,0,0,0,.43,2h0.19a4.11,4.11,0,0,0,.6-0.07,8.89,8.89,0,0,1,1.05-.13,17.11,17.11,0,0,0,7.41-2A7.93,7.93,0,0,0,66,491l0-.15a6.55,6.55,0,0,0,.25-1.59c0-.75,0-1.3,0-1.64,0-.13,0-0.61-0.14-2.2s-0.15-2-.16-2.26a28.42,28.42,0,0,0-.87-5.55,21.27,21.27,0,0,0-2.11-5c-1-1.78-1.85-3.12-2.46-4l-3.28-4.47c-1.37-1.85-2.43-3.34-3.22-4.56a39.87,39.87,0,0,1-2.62-4.8,23.07,23.07,0,0,1-2-6.44,29.7,29.7,0,0,1-.17-7c0.72-7.79.93-9.52,1-10.13,1-5.84,3-9.45,6-11.12l0.13-.07A12,12,0,0,1,63.91,419a18.61,18.61,0,0,1,6.93,2.87,19.59,19.59,0,0,1,5.5,5.39,10.42,10.42,0,0,1,1.85,7.39,4,4,0,0,1-1.49,2.58,3.79,3.79,0,0,1-3,.74,3.93,3.93,0,0,1-2.51-1.48,3.79,3.79,0,0,1-.74-3,3.35,3.35,0,0,0-.72-2.1,10.66,10.66,0,0,0-3.17-3,11.46,11.46,0,0,0-4.05-1.69,3.59,3.59,0,0,0-2.37.17s-1.17.74-2.05,5.59c-0.12,1-.77,7.42-1,9.58a17.4,17.4,0,0,0,.61,6.73,21.71,21.71,0,0,0,2.1,5.28c0.86,1.43,2.14,3.3,3.81,5.54,1.59,2,2.74,3.6,3.41,4.58s1.59,2.51,2.8,4.61a29.12,29.12,0,0,1,2.84,6.73,34.82,34.82,0,0,1,1.14,7.22v0.14c0,0.15,0,.54.09,1.49s0.12,1.45.15,1.92,0.06,1.21.06,2A22.31,22.31,0,0,1,74,490.6a19.14,19.14,0,0,1-.35,2.13A16.12,16.12,0,0,1,66.42,503c-2.69,1.72-6.41,2.79-11,3.16h0l-0.45.07a9.55,9.55,0,0,1-1.19.13A9,9,0,0,1,52.42,506.49Zm23-72.17h0Z" transform="translate(-40.01 -345.27)" style="fill:#423e3b"/><path d="M88,396q-0.54,3.27-1.18,9.63a124.07,124.07,0,0,0-.45,12.45,44.32,44.32,0,0,0,1.36,11.82q1.27,4.36,3.64,4.27A2.92,2.92,0,0,0,92.5,434l0.64-.18A6,6,0,0,0,94,433.4c0.42-.24.82-0.45,1.18-0.64q6.09-3.18,7.82-12,0.54-2.82,1.09-8.09,0.45-5.73.91-8.18a23.9,23.9,0,0,0,.36-3q0.18-1.54.32-3.73t0.23-3.18q0.09-1.18.18-2.45,0.09-1.55.09-2.09l0.09-.36V389a3.69,3.69,0,0,1,0-.68,0.42,0.42,0,0,1,.23-0.32,1.16,1.16,0,0,1,1.55-.55,1.5,1.5,0,0,1,.36.27l0.27,0.27,0.09,0.18a0.69,0.69,0,0,0,.09.27,17.4,17.4,0,0,1,0,6.18q-0.09.54-.23,1.59a9.52,9.52,0,0,1-.23,1.32,17.16,17.16,0,0,0-.27,2.73,251.44,251.44,0,0,0,.73,25.27q0,0.36-.18,4.27a8.4,8.4,0,0,0,.18,3.36l0.09,0.27a0.56,0.56,0,0,0,.27.14l0.32,0.09a3.33,3.33,0,0,0,.59.09,6.05,6.05,0,0,1,.82.14,1.28,1.28,0,0,1,.45,2.32,1.3,1.3,0,0,1-1,.23L110,436.4l-0.82-.18a6.53,6.53,0,0,1-.91-0.32,2.91,2.91,0,0,1-1-.64,3.64,3.64,0,0,1-.68-1,10,10,0,0,1-.36-4.64q0.18-3.73.18-3.91L106,419l-0.36,2.27q-2,10.09-9.27,13.72-0.27.18-1,.59t-1.09.59a7.58,7.58,0,0,1-1.09.41,5.13,5.13,0,0,1-1.54.23q-4.36.18-6.27-6a47.09,47.09,0,0,1-1.45-12.63q-0.09-6.18.45-12.63t1.18-9.82a1.27,1.27,0,0,1,.55-0.86,1.24,1.24,0,0,1,1-.23,1.25,1.25,0,0,1,.82.54A1.16,1.16,0,0,1,88,396Z" transform="translate(-40.01 -345.27)" style="fill:#991414"/><path d="M91.34,439.27c-2.82,0-6.44-1.41-8.4-7.77-1-3.24-1.5-7.6-1.57-13.34-0.06-4.17.09-8.5,0.46-12.87s0.83-7.77,1.21-10a3.78,3.78,0,0,1,1.57-2.5,3.79,3.79,0,0,1,5.9,3.71c-0.35,2.13-.74,5.31-1.16,9.45s-0.5,8.21-.44,12.17a42.24,42.24,0,0,0,1.26,11.12c0.62,2.14,1.22,2.52,1.23,2.52l0.21,0,0.21-.07,0.55-.16,0.44-.25q0.7-.4,1.31-0.7c3.34-1.75,5.47-5.1,6.48-10.24,0.35-1.79.7-4.44,1.06-7.87,0.31-3.88.62-6.64,0.94-8.38a21.53,21.53,0,0,0,.33-2.69v-0.14c0.12-1,.22-2.2.31-3.59s0.17-2.57.23-3.25,0.12-1.56.18-2.41,0.08-1.57.08-1.91v-0.31l0.09-.36V389a5.83,5.83,0,0,1,.1-1.18,2.93,2.93,0,0,1,.83-1.54,3.65,3.65,0,0,1,4.24-1.18l0.29,0.13a4,4,0,0,1,1,.72l0.57,0.58,0.54,1.07,0,0.3a19.6,19.6,0,0,1,0,7.1c-0.07.4-.14,0.9-0.22,1.56a13.2,13.2,0,0,1-.26,1.54,14.35,14.35,0,0,0-.22,2.18v0.1c-0.24,5.88,0,14.29.72,25v0.17c0,0.2,0,.71-0.18,4.39,0,0.63-.06,1.11-0.06,1.46l0.38,0.08a3.72,3.72,0,0,1,2.26,1.54,3.77,3.77,0,0,1,.64,2.84,3.73,3.73,0,0,1-1.57,2.42,3.77,3.77,0,0,1-2.84.65l-0.54-.09c-0.43-.08-0.74-0.15-1-0.23a9,9,0,0,1-1.25-.43,5.42,5.42,0,0,1-1.76-1.18,6.16,6.16,0,0,1-1.15-1.6,8.64,8.64,0,0,1-.7-3.38,17.69,17.69,0,0,1-6.09,5.07q-0.34.22-1,.6t-1.2.65a9.66,9.66,0,0,1-1.46.56,7.62,7.62,0,0,1-2.23.34H91.34ZM110.9,434h0Zm-1-2.82h0ZM88,396.09h0Z" transform="translate(-40.01 -345.27)" style="fill:#423e3b"/><path d="M128.31,380a26.33,26.33,0,0,1,1.73,8.27q0.55,6.73.82,7.91,0.09,0.36,1.36,6.09,0.36,1.55.55,2.82a84.09,84.09,0,0,1,0-9.63q0.54-10,4.64-13.45,2-1.64,7.45-2.45a1.18,1.18,0,0,1,1,.23,1.33,1.33,0,0,1,.5.86,1.18,1.18,0,0,1-.23,1,1.33,1.33,0,0,1-.86.5q-4.73.64-6.18,1.91-3.27,2.73-3.82,11.63,0,4.09,0,5.13t0.18,4.73q0.23,3.68.23,3.86a108.72,108.72,0,0,1,0,10.91c-0.06.67-.09,1.18-0.09,1.54v0.46a0.71,0.71,0,0,1-.09.27v0.09a9.7,9.7,0,0,0-.18,1.18v0.91c-0.06.24-.11,0.45-0.14,0.64a0.83,0.83,0,0,1-.23.46,1.19,1.19,0,0,1-1.18.54,1.23,1.23,0,0,1-.82-0.45,1.41,1.41,0,0,1-.27-0.36,2.76,2.76,0,0,1-.18-0.54,2.73,2.73,0,0,0-.09-0.64q-0.09-.73-0.18-1.82-0.18-1.82-.45-5.18-0.73-8.18-.82-8.54-0.27-2.09-1.18-6-1.27-5.73-1.36-6.09-0.27-1.45-.82-8.27a23.86,23.86,0,0,0-1.54-7.36A1.3,1.3,0,0,1,128.31,380Z" transform="translate(-40.01 -345.27)" style="fill:#991414"/><path d="M133.85,428.83l-0.48,0-0.11,0a3.71,3.71,0,0,1-2.28-1.26,3.86,3.86,0,0,1-.64-0.91,5,5,0,0,1-.37-1.06l-0.07-.3V425s0,0,0,0l-0.05-.28q-0.1-.77-0.19-1.93c-0.12-1.18-.27-2.92-0.45-5.18-0.56-6.25-.73-7.87-0.78-8.24l0-.18c-0.17-1.3-.55-3.24-1.14-5.76-0.84-3.79-1.29-5.81-1.36-6.06l0-.13c-0.13-.68-0.35-2.3-0.85-8.53a20.93,20.93,0,0,0-1.32-6.51,3.63,3.63,0,0,1,1.86-5,3.64,3.64,0,0,1,5,1.86v0a23.24,23.24,0,0,1,1.63,6.26,13,13,0,0,1,3.57-5.14c1.73-1.42,4.57-2.4,8.7-3a3.67,3.67,0,0,1,2.86.73,3.82,3.82,0,0,1,1.43,2.42,3.69,3.69,0,0,1-.72,2.9,3.82,3.82,0,0,1-2.44,1.43c-3.94.53-4.85,1.24-4.94,1.32-1,.8-2.54,3.08-3,9.83,0,2.73,0,4.42,0,5.17,0,0.34,0,1.37.18,4.46s0.23,3.77.23,3.95c0.18,4.17.18,7.91,0,11.12-0.07.81-.09,1.2-0.09,1.4v0.46a2.85,2.85,0,0,1-.16.92v0.05a6.59,6.59,0,0,0-.11.71V425l-0.08.3c0,0.16-.07.3-0.09,0.43a3.38,3.38,0,0,1-.76,1.64A3.67,3.67,0,0,1,133.85,428.83Zm-1.09-23.66,0.1,0.51v-0.07l0-.45h-0.07ZM145.26,382h0Z" transform="translate(-40.01 -345.27)" style="fill:#423e3b"/><path d="M200.64,372.79a32.69,32.69,0,0,1-.74,6q-0.85,4.34-1,5.73-2.34,22.58-.74,36.16A38,38,0,0,0,200,429.4q1.91,5.15,5.53,6.14,6.7,1.8,10.74-2.37,3.08-3.27,4.47-9.57a88,88,0,0,0,2-15.38q0.32-7.85-.16-19.1t-0.48-15.66q0-1.15,1.49-1.15t1.49,1.15q0,4.17.48,15.5t0.16,19.39a86.08,86.08,0,0,1-2,15.58q-1.6,7-5.1,10.63-5.32,5.56-14.14,3.11-5-1.39-7.34-7.69a43.76,43.76,0,0,1-1.91-9.16q-1.6-13.58.74-36.48a53.49,53.49,0,0,1,1.06-5.89,32.16,32.16,0,0,0,.64-5.64q0-1.14,1.49-1.14T200.64,372.79Z" transform="translate(-40.01 -345.27)" style="fill:#991414"/><path d="M209.58,440.92a21.6,21.6,0,0,1-5.78-.85c-4.13-1.15-7.17-4.25-9-9.23a45.65,45.65,0,0,1-2.05-9.72c-1.08-9.2-.83-21.66.74-37a54.09,54.09,0,0,1,1.11-6.17,29.69,29.69,0,0,0,.58-5.12c0-1.81,1.23-3.64,4-3.64s4,1.83,4,3.64a34.73,34.73,0,0,1-.79,6.46c-0.68,3.46-.87,4.86-0.92,5.43-1.54,14.87-1.79,26.85-.75,35.68a35.93,35.93,0,0,0,1.66,8.16c1,2.63,2.27,4.18,3.85,4.6,3.59,1,6.23.43,8.29-1.7,1.71-1.81,3-4.63,3.82-8.37a85.92,85.92,0,0,0,2-14.95c0.21-5.14.16-11.49-.16-18.89s-0.48-12.8-.48-15.77a4,4,0,0,1,8,0c0,2.74.16,7.92,0.48,15.4s0.37,14.18.16,19.59a89,89,0,0,1-2.08,16c-1.16,5.07-3.09,9-5.73,11.81A14.46,14.46,0,0,1,209.58,440.92Z" transform="translate(-40.01 -345.27)" style="fill:#423e3b"/><path d="M240,432.75q0-4.91-.43-14.81t-0.43-14.89q0-1.14,1.49-1.14t1.49,1.14q0,2.46.64,20.78a91.76,91.76,0,0,1,3.62-9.65,41.43,41.43,0,0,1,5-8.92q3.51-4.33,7.34-4.66a5.92,5.92,0,0,1,4.15,1.31,8.48,8.48,0,0,1,2.45,2.94,14.6,14.6,0,0,1,2.23,6.05q0.21,2.21.21,4.87t-0.11,4.46q-0.11,1.8-.43,5-0.21,2.87-.32,4.5a45.68,45.68,0,0,0,.21,7.36q0.42,5.56.43,7.61,0,1.15-1.49,1.15t-1.49-1.15q0-2-.43-7.44a50.61,50.61,0,0,1-.21-7.69q0.1-1.39.37-4.54t0.37-4.87q0.1-1.72.11-4.29t-0.21-4.79a15.1,15.1,0,0,0-1.91-5.32,10.61,10.61,0,0,0-1.91-2.29,2.26,2.26,0,0,0-1.6-.57q-2.55.16-5.21,3.6a36.82,36.82,0,0,0-4.79,8.43q-1.28,2.94-2.39,6.18t-2.13,6.54q-1,3.31-1.12,3.8T243,433a40,40,0,0,1-.53,6.22,15.19,15.19,0,0,1-.53,2.54,1.77,1.77,0,0,1-.32.82,1,1,0,0,1-.32.49,1.7,1.7,0,0,1-1.6.49,1.53,1.53,0,0,1-1.17-.82,1.58,1.58,0,0,1-.32-0.65v-1.31a22.13,22.13,0,0,1,.64-3.44Q239.24,435.2,240,432.75Z" transform="translate(-40.01 -345.27)" style="fill:#991414"/><path d="M266,448.34a3.62,3.62,0,0,1-4-3.65c0-1.23-.14-3.67-0.42-7.25a52.3,52.3,0,0,1-.21-8.09c0.07-.91.19-2.43,0.37-4.54s0.3-3.68.37-4.81,0.1-2.5.1-4.14-0.07-3.16-.2-4.55a12.64,12.64,0,0,0-1.57-4.26,8.35,8.35,0,0,0-1.34-1.63h0c-0.9.14-2,1.06-3.25,2.62a34.64,34.64,0,0,0-4.47,7.89c-0.82,1.9-1.6,3.92-2.32,6s-1.44,4.31-2.1,6.46c-0.87,2.85-1,3.47-1.06,3.6l-0.1.35q-0.16.42-.38,1.09a43.38,43.38,0,0,1-.56,6.2,17.72,17.72,0,0,1-.58,2.77,4.39,4.39,0,0,1-.53,1.39,3.45,3.45,0,0,1-.84,1.14,4.2,4.2,0,0,1-3.7,1.11,4.09,4.09,0,0,1-2.85-1.91,4.16,4.16,0,0,1-.64-1.41l-0.08-.31v-1.82a24.11,24.11,0,0,1,.69-3.79c0.27-1.36.65-2.84,1.11-4.4,0-3.21-.15-8-0.42-14.33-0.28-6.59-.43-11.63-0.43-15,0-1.81,1.23-3.64,4-3.64s4,1.83,4,3.64c0,0.94.08,3.77,0.22,8.43a40.58,40.58,0,0,1,4.56-7.76c2.8-3.46,5.85-5.34,9.1-5.62a8.39,8.39,0,0,1,5.89,1.82,10.84,10.84,0,0,1,3.09,3.67,17.08,17.08,0,0,1,2.55,7c0.15,1.58.23,3.29,0.23,5.14s0,3.34-.11,4.6-0.22,3-.43,5.09c-0.14,1.84-.24,3.33-0.31,4.41a43.52,43.52,0,0,0,.21,7c0.29,3.85.44,6.41,0.44,7.83A3.62,3.62,0,0,1,266,448.34Z" transform="translate(-40.01 -345.27)" style="fill:#423e3b"/><path d="M331.15,349.83q10.28,0,15.12,15.13v5.8q-2.34,10.22-2.34,12.83a22.9,22.9,0,0,1,11.66-3.51h1.17q14.38,0,28,19.81a19.37,19.37,0,0,1,2.29,9.32q-9.06,24.44-32.59,24.44l-7,1.17q-11.82,0-17.47-8.15v-2.34h1.17q6.71,5.81,11.66,5.81h7q25.78,0,32.59-19.76V405.7q-7.94-20.93-24.45-20.93a1,1,0,0,0-1.17-1.17q-6.34,0-25.62,11.61v-3.46q11.66-11.5,11.66-23.27v-2.34q0-6.5-8.15-11.66H330q-9.32,1.44-9.32,7Q323,393.61,328.8,436l-2.34,1.12q-5.81,0-12.78-47.72V376.62Q315.38,349.83,331.15,349.83Zm-14,22.1V383.6q0,6.71,2.29,23.27h1.17V405.7l-2.34-33.76h-1.12Z" transform="translate(-40.01 -345.27)" style="fill:#991414"/><path d="M327.37,441.12h-0.91c-6.14,0-10.42-7.91-16.74-51.14l0-.58v-13c0.89-13.93,5.33-30.53,21.46-30.53,6,0,14.19,3.11,18.93,17.9l0.19,0.6v6.88l-0.1.44c-0.49,2.15-.88,3.92-1.18,5.38a23.83,23.83,0,0,1,6.6-1h1.17c10.94,0,21.46,7.25,31.26,21.55l0.22,0.37A23.43,23.43,0,0,1,391,409.21v0.72l-0.25.67c-6.61,17.83-18.72,26.94-36,27.05l-7,1.17h-0.33c-5.83,0-10.77-1.33-14.76-4l0.08,0.58,0.4,2.89Zm3.4-20.78h1.87l1.13,1c4.61,4,7.47,4.83,9,4.83h7c15.15,0,24.51-5.38,28.59-16.45v-3.25c-4.67-11.89-11.36-17.67-20.45-17.67h-4v-0.62c-3.23,1-9.35,3.63-20.72,10.48l-4.73,2.85Q329.53,410.63,330.77,420.34Zm-9.49-9.47q0.34,1.79.67,3.4-0.21-1.71-.41-3.4h-0.25Zm3.38-49.52q1,13.37,2.57,28.65l1.11-1.09c6.95-6.85,10.47-13.73,10.47-20.43v-2.34c0-2.63-1.8-5.2-5.35-7.66h-3.17C328.1,358.83,324.78,359.66,324.66,361.35Z" transform="translate(-40.01 -345.27)" style="fill:#423e3b"/><path d="M429.09,400.32H430q2.13,0,7.77,25.21,4.08,8.35,13.58,14.56a7.81,7.81,0,0,1,3.91-1v2a1.73,1.73,0,0,1-2,2h-2.88q-16.51-11.32-16.51-23.3-1.64,0-4.84,12.6-5.86,6.79-12.65,6.79-11.63-.62-11.63-10.65,0-19.93,15.53-27.16h2.88q1.42,0,2.93,2.88v1h-1l-3.86-1q-13.58,6.21-13.58,26.18,0,4.62,9.67,5.86,12.6-2.84,12.6-23.3a31.09,31.09,0,0,0-1.91-9.72A6.93,6.93,0,0,0,429.09,400.32Z" transform="translate(-40.01 -345.27)" style="fill:#991414"/><path d="M453.32,446h-3.81l-0.77-.53C441,440.2,435.79,434.67,433.09,429c-0.33,1.16-.69,2.52-1.09,4.09l-0.17.69-0.46.54c-4.48,5.2-9.5,7.83-14.92,7.83h-0.16c-12.59-.67-14.47-8.84-14.47-13.65,0-14.49,5.81-24.54,17.27-29.88l0.6-.28h3.55a4.73,4.73,0,0,1,2.86,1v-2l3.93,0.05c3,0,4.79,1.21,10.61,27.2a33.7,33.7,0,0,0,11,12.16,11.25,11.25,0,0,1,3.59-.57h3v5A4.69,4.69,0,0,1,453.32,446Zm-31.67-38.66c-7.34,3.8-10.91,11.34-10.91,23,0,0.95,2,2.16,6.53,2.81,2.93-.72,9.75-3.29,9.75-20.25a21.74,21.74,0,0,0-.61-4.77h-1.6Z" transform="translate(-40.01 -345.27)" style="fill:#423e3b"/><path d="M472.79,432.22a11.92,11.92,0,0,1-7.18-.73,15.22,15.22,0,0,1-7.18-7.18,31.3,31.3,0,0,1-3.14-10.54,30.36,30.36,0,0,1,.23-10.45q1.09-4.82,5.54-10.36,4.36-5.36,7.73-5.91,7.72-1.18,13.27,2.54,7.18,5,8.18,12.36a28.12,28.12,0,0,1-.64,8.91,48.68,48.68,0,0,1-3.54,10.36,24.41,24.41,0,0,1-6,8.36A10,10,0,0,1,472.79,432.22Zm-2.09-2.27a1,1,0,0,1,1.18-.46l0.73,0.18a18,18,0,0,0,3.18-1.09,1.18,1.18,0,0,1,1.18.09q0.73-.45,1.45-1a23.92,23.92,0,0,0,5.36-7.54,44.94,44.94,0,0,0,3.27-9.68,23.8,23.8,0,0,0,.64-8.13q-0.82-6.27-7.09-10.54-4.73-3.27-11.45-2.18-2.36.36-6.09,5-4.09,5.09-5,9.27a26.34,26.34,0,0,0-.27,9.63,28.09,28.09,0,0,0,2.91,9.63q2.36,4.55,5.91,6A10.26,10.26,0,0,0,470.7,429.94Z" transform="translate(-40.01 -345.27)" style="fill:#991414"/><path d="M470.26,435a13.82,13.82,0,0,1-5.67-1.19,17.7,17.7,0,0,1-8.37-8.29,33.93,33.93,0,0,1-3.41-11.4,33,33,0,0,1,.27-11.32,29,29,0,0,1,6-11.38c3.35-4.12,6.38-6.34,9.28-6.81,5.79-.88,10.85.11,15.06,2.94,5.4,3.76,8.5,8.49,9.26,14.1a30.24,30.24,0,0,1-.66,9.74,51.48,51.48,0,0,1-3.74,10.93,27,27,0,0,1-6.65,9.21,12.54,12.54,0,0,1-8.73,3.23A16.23,16.23,0,0,1,470.26,435Zm2.15-43.14a17.86,17.86,0,0,0-2.85.24c-0.16,0-1.51.33-4.54,4.1-2.47,3.07-4,5.85-4.5,8.24a24.06,24.06,0,0,0-.24,8.78,25.77,25.77,0,0,0,2.64,8.78c1.3,2.5,2.86,4.13,4.65,4.86a7.61,7.61,0,0,0,2.29.59,3.51,3.51,0,0,1,2.63-.34l0.12,0a16.13,16.13,0,0,0,2.17-.79,3.87,3.87,0,0,1,1.74-.32l0.34-.25a21.82,21.82,0,0,0,4.7-6.7,42.6,42.6,0,0,0,3.07-9.11,21.61,21.61,0,0,0,.61-7.24c-0.46-3.51-2.43-6.39-6-8.84A11.57,11.57,0,0,0,472.41,391.81Z" transform="translate(-40.01 -345.27)" style="fill:#423e3b"/><path d="M510,349.26a27.25,27.25,0,0,1,.11,4q-0.11,1.42-.44,3.87a30.45,30.45,0,0,0-.33,3.65,87.82,87.82,0,0,0,.11,9.6q0.22,6.76.11,9.93-0.11,2.62-.65,6.65l-0.55,4a10.63,10.63,0,0,1,5.89,1.2,25.47,25.47,0,0,1,7.63,6.22q12.76,14.72,8.07,29.23a19.1,19.1,0,0,1-7.42,10.25,14.72,14.72,0,0,1-11.89,2.18l-1.85-.22a4.69,4.69,0,0,1-2.62-.87,1.73,1.73,0,0,1-.76-1,3.78,3.78,0,0,1-.33-1q-0.11-1-.33-2.51-0.22-2.51-.33-6.65t-0.11-11.12q0-16.47.44-21.27a1.39,1.39,0,0,1-.87-0.54,1.37,1.37,0,0,1,.22-2.18,11,11,0,0,1,1-.65l0.22-1.75c0.07-.65.16-1.36,0.27-2.13s0.2-1.33.27-1.69q0.54-3.82.65-6.22,0.11-3.16-.11-9.71a95.92,95.92,0,0,1-.11-10q0.11-1.53.38-3.93t0.38-3.49a20.74,20.74,0,0,0-.11-3.49,1.4,1.4,0,0,1,.27-1.15,1.59,1.59,0,0,1,1-.6,1.41,1.41,0,0,1,1.14.27A1.6,1.6,0,0,1,510,349.26Zm-1.85,87.36a6.26,6.26,0,0,0,.87.22q2.07,0.22,2.29.22a11.82,11.82,0,0,0,9.65-1.75,16.1,16.1,0,0,0,6.16-8.51q4.14-13-7.63-26.39a23.41,23.41,0,0,0-6.65-5.45,6.49,6.49,0,0,0-4.91-.76q-0.55,5.24-.55,22.58,0,7.09.11,11t0.33,6.54a11,11,0,0,0,.33,2.07v0.11a0.31,0.31,0,0,0-.22.11A0.14,0.14,0,0,1,508.18,436.62Z" transform="translate(-40.01 -345.27)" style="fill:#991414"/><path d="M514.35,443a19.93,19.93,0,0,1-4.06-.43l-1.69-.2a7.17,7.17,0,0,1-3.81-1.3,4.22,4.22,0,0,1-1.65-2.07,6.42,6.42,0,0,1-.47-1.47l0-.2c-0.07-.64-0.18-1.45-0.32-2.44v-0.13c-0.15-1.73-.26-4-0.34-6.8s-0.11-6.49-.11-11.19c0-9.68.11-16.25,0.34-20L502,396.5a3.84,3.84,0,0,1,.6-5.66l0.08-.06,0.15-.11,0.08-.6c0.07-.64.17-1.38,0.28-2.17s0.21-1.36.28-1.76c0.34-2.43.55-4.42,0.62-5.91,0.07-2,0-5.23-.11-9.51a97.26,97.26,0,0,1-.11-10.27c0.08-1.07.21-2.43,0.39-4.05s0.31-2.74.38-3.46a17.68,17.68,0,0,0-.11-2.94,3.91,3.91,0,0,1,.79-3,4.08,4.08,0,0,1,2.59-1.53,3.94,3.94,0,0,1,3.09.76,4.1,4.1,0,0,1,1.53,2.6l0,0.21a29.26,29.26,0,0,1,.11,4.43c-0.08,1-.23,2.35-0.45,4a27.24,27.24,0,0,0-.31,3.32V361a86.17,86.17,0,0,0,.11,9.3c0.15,4.57.18,8,.11,10.14-0.08,1.83-.3,4.14-0.68,6.9l-0.18,1.3a15.15,15.15,0,0,1,4.13,1.35,28.08,28.08,0,0,1,8.43,6.83c9.08,10.48,12,21.13,8.57,31.64A21.61,21.61,0,0,1,524,440,16.72,16.72,0,0,1,514.35,443Zm-6.59-6a2.05,2.05,0,0,0,1,.32l-0.92-.86-0.21.06v0.08a1.18,1.18,0,0,0,.09.26Zm2.62-2.59,1,0.09h0.28l0.2,0.06a9.34,9.34,0,0,0,7.69-1.37,13.55,13.55,0,0,0,5.2-7.23c2.49-7.8.16-15.64-7.14-24a21,21,0,0,0-5.92-4.88,6.79,6.79,0,0,0-1.44-.57c-0.24,4-.36,10.73-0.36,20.16,0,4.69,0,8.38.11,10.95s0.18,4.78.32,6.4Z" transform="translate(-40.01 -345.27)" style="fill:#423e3b"/><path d="M577.28,400.32h0.93q2.13,0,7.77,25.21,4.08,8.35,13.58,14.56a7.81,7.81,0,0,1,3.91-1v2a1.73,1.73,0,0,1-2,2h-2.88q-16.51-11.32-16.51-23.3-1.64,0-4.84,12.6-5.86,6.79-12.65,6.79Q553,438.49,553,428.46q0-19.93,15.53-27.16h2.88q1.42,0,2.93,2.88v1h-1l-3.86-1q-13.58,6.21-13.58,26.18,0,4.62,9.67,5.86,12.6-2.84,12.6-23.3a31.09,31.09,0,0,0-1.91-9.72A6.93,6.93,0,0,0,577.28,400.32Z" transform="translate(-40.01 -345.27)" style="fill:#991414"/><path d="M601.51,446h-3.81l-0.77-.53C589.21,440.2,584,434.67,581.28,429c-0.33,1.16-.69,2.52-1.09,4.09l-0.17.69-0.46.54c-4.48,5.2-9.5,7.83-14.92,7.83h-0.16c-12.59-.67-14.47-8.84-14.47-13.65,0-14.49,5.81-24.54,17.27-29.88l0.6-.28h3.55a4.73,4.73,0,0,1,2.86,1v-2l3.93,0.05c3,0,4.79,1.21,10.61,27.2a33.7,33.7,0,0,0,11,12.16,11.25,11.25,0,0,1,3.59-.57h3v5A4.69,4.69,0,0,1,601.51,446Zm-31.67-38.66c-7.34,3.8-10.91,11.34-10.91,23,0,0.95,2,2.16,6.53,2.81,2.93-.72,9.75-3.29,9.75-20.25a21.74,21.74,0,0,0-.61-4.77H573Z" transform="translate(-40.01 -345.27)" style="fill:#423e3b"/><path d="M610.82,373.76h2.1l2.15,1.07L614,380.16v51.21h1.07q6.74-17,17.09-17,9.62,2.2,9.62,10.64v2.15q-4.15,31-19.23,31h-5.32L611.9,457v2.15h-3.22q2.15-27.78,2.15-56.58v-28.8ZM614,453.82a8.91,8.91,0,0,0,4.3,1h3.17q13.57,0,17.09-28.8-1.46-7.47-4.25-7.47h-6.39Q614,430,614,453.82Z" transform="translate(-40.01 -345.27)" style="fill:#991414"/><path d="M615.4,462.64h-10.5l0.29-3.77c1.42-18.34,2.14-37.29,2.14-56.31v-32.3h6.43L619,372.9l-1.53,7.6v38.85c4.14-5.67,9-8.53,14.66-8.53h0.39l0.38,0.09c8,1.82,12.34,6.81,12.34,14.05l0,2.61c-3,22.55-10.66,34-22.7,34h-5.67l-1.47-.3v1.37Zm2.14-11.34a6.74,6.74,0,0,0,.76,0h3.17c6.87,0,11.43-8.47,13.54-25.17a13.63,13.63,0,0,0-1.35-4.11H629.2C621.79,428.64,618,438.24,617.54,451.31Z" transform="translate(-40.01 -345.27)" style="fill:#423e3b"/></svg>