<svg width="220" height="177" xmlns="http://www.w3.org/2000/svg"><g fill="none" fill-rule="evenodd"><path d="M212.9264 72.1492c-1.1188-2.5956-74.0638-120.7397-180.8858-48.4212C8.367 40.9573-2.776 44.09 2.057 86.246c2.1483 18.7507 6.892 45.154 14.276 58.311 3.7592 6.668 8.3238 13.2017 13.6492 19.3326 6.6233-1.7453 12.8437-2.327 13.2018-2.327 9.9348-.9846 12.6646-1.611 17.5873-3.804 4.5648-2.0137 25.3742-6.444 25.3742-6.5336-28.5514-6.7128-53.0305-56.1185-40.724-89.0556 5.7283-15.305 15.529-29.357 27.8356-38.218 0 0 .045-.0446.179-.134-.044.0446-.134.0894-.179.134.09 0 33.654-21.4358 86.326 8.0554 26.046 14.589 62.205 60.8174 32.4 96.216-12.799 15.1706-30.923 18.885-52.09 26.2243 4.251 4.789 17.856.985 25.15 5.371 8.503 5.147 26.985 8.055 37.099 11.054 16.111-23.136 24.793-66.232 10.785-98.722zM30.2058 47.5806L17.0936 67.5398l-6.4442-18.8852 19.5564-1.074zm-16.2 49.8084l5.057-21.9282 19.422 17.4083-24.479 4.52zm25.016 3.2222l.537 5.2806L19.6 112.336l-2.909-7.0707 22.331-4.654zm-1.1635 53.9256L20.45 130.0578l31.5946 1.9242-14.1863 22.5548zm5.6835-39.9632l2.3718 6.131-25.016 3.5354-2.0587-5.8177 24.702-3.8487zm-5.2807-71.513c.224-.8055-16.96-2.2375-19.78-2.5955-2.014-.223 4.073-5.37 4.073-5.37l20.631 4.296-4.922 3.67zm9.13-7.4287l-17.632-5.818 7.518-3.67 13.336 7.607-3.222 1.879zm7.832-3.223l-10.652-9.576 20.094-5.057-9.442 14.633zm13.56-15.797l7.205-7.921 9.219 6.891-16.424 1.029zm20.094-1.79L82.88 7.527l4.9225-2.4617 6.0864 8.7715-5.013.9844zm11.591-3.044L96.17 4.037l5.1463-.8502 4.2963 9.0397-5.1465-.4475zm116.085 83.06H206.26l-.9845-5.147 10.2927-.627.9848 5.773zm-2.238-11.278L204.2 85.485l1.0742-10.1138 9.0397 8.1895zM110.356 12.674l-2.5955-8.1896 14.589 7.2945-11.9934.895zm25.3295 4.699l-9.4426-5.594 11.188-.8504-1.746 6.4442zm2.9984 2.5955l4.296-7.2946 2.998 1.701-4.296 4.744-2.999.851zm7.294 1.2977l4.743-4.2962 3.446 2.148-5.594 2.9984-2.596-.8503zm6.041 3.401l5.594-3.8486 5.594 5.9967-11.188-2.148zm13.291 4.2962l7.742 2.148-3.849 2.9983-3.894-5.147zm6.444 8.1895l4.743-3.446 2.148 2.596-3.849 2.596-3.043-1.745zm5.191 3.849s.358-.179.94-.447c1.566-.716 4.654-2.148 4.654-2.148l1.298 2.596-4.744 2.148-2.148-2.148zm9.845 2.596l3.446 5.147-8.593-2.595 5.146-2.551zm3.446 7.742l6.444 2.999-5.594 2.999-.851-5.997zm3.446 8.593l6.444-2.595 1.611 2.237-6.758 2.237-1.298-1.88zm2.237 3.849l7.294-2.596.76 2.237-5.907 2.148-2.148-1.79zm2.506 4.52l6.892-2.372-.448 6.892-6.444-4.52zm-27.612 90.085s7.652-9.219 8.905-8.592c1.253.626 19.869 12.128 19.869 12.128l-28.775-3.536zm32.31.537l-23.629-13.425 7.294-2.685 19.78 9.979-3.446 6.131zm4.43-11.68l-17.095-7.608 3.222-4.52 16.424 6.757-2.551 5.37zM196.59 130.82l10.2927-7.966 5.818 14.1865-16.1108-6.221zm11.5905-11.501l-3.222-11.2777 10.8295 5.37-7.6078 5.907zm-1.074-16.245l-1.164-4.7438 10.9643 2.2376-.313 6.131-9.4873-3.625z" fill="#C8C6C5"/><path d="M143.7405 44.7612c-.0448 6.9365-8.7266 6.2652-15.3498 7.5183-1.7006.3132-7.742 2.1928-8.5923 2.4613-.2685.8503-.2238 4.8332-.4475 5.6835-.09.537 8.458-8.5923 8.368-8.0553-.09.6713-7.474 11.322-7.205 14.2757.716 7.6973 2.193 10.651 15.26 22.0178 11.098-2.3718 17.632-16.4238 18.393-21.2122-1.343.2237-11.322-2.014-11.86-2.73 1.7-2.148 3.58-.4474 3.535-1.7005-.045-1.253 1.879-2.9983 3.222-3.5353 1.342-.537 6.131-.8503 6.176-.9846 0-.179-2.641-1.074-6.042-.94 1.253-2.372 5.236-2.864 13.201-3.536 2.73-.224 4.923 6.712 7.294 6.668 2.372-.045 3.177 5.862 1.611 6.354-1.388.984-11.322.537-15.126.626-.806 2.909-1.835 7.786-3.759 11.814-2.014 4.251-3.536 9.621-3.536 13.962-.045 5.952.358 5.862 1.387 10.203 2.55.984 7.339 4.072 12.441 2.774 2.64-.671 4.072-2.864 6.891-4.923-2.462.358-12.576-3.446-7.742-9.13 2.55-2.954 10.382-.627 11.859-2.909 2.461-3.759 12.127 3.669 14.768 7.026.537.671.268.179-2.596.224-2.64 0-4.296.402-4.296.626 1.119.089 2.998.179 4.699.403 3.714.537 4.386.582 3.983 2.148-2.148 4.699-3.894 4.475-6.221 3.983-2.327-.493-7.294-.493-11.725-.224-2.819 1.119-4.967 5.191-7.294 6.981-.358.179-16.871 7.473-16.648 7.071-.627 1.074-2.775 17.095-4.923 22.778-3.983 10.472-9.04 11.68-7.832 13.112 4.2063 5.639 10.293 4.341 19.78 5.997 5.191.94 8.369 3.088 12.575 4.744 3.1326.806 6.2205 1.566 9.353 2.372-.0447.224-.0894.447-.0894.626-4.43 2.193-14.141-1.79-18.795-2.5953-.85 0-10.74.224-14.8128.3135-3.67.5814-8.816 1.208-12.665.447-3.1326-.6717-12.396-4.431-15.35-2.238-2.461 1.79-7.339 4.878-3.8484 6.355 1.969.85 3.983 5.549 3.6696 6.5334.358-.537-.179 1.3424-2.2375.0894-1.298-.7605-9.6215-6.5782-10.293-8.055-.9395-2.1033-.268-7.071-2.595-7.742.537.134-15.977 2.3718-12.889 1.924-6.713 1.029-11.412-2.506-17.498-1.3873-2.685.4928-10.248 3.178-12.575 2.148.089-.671.223-.671.537-1.074 4.251-1.79 8.055-4.296 13.425-5.37 3.848-.7603 8.682.269 12.262-.7603 5.236-1.5213 6.668-5.415 13.649-5.4594-2.193-8.324-4.744-17.14-2.864-26.4036 1.387-9.89 2.998-12.575 3.625-18.393-2.462-3.938-6.4-10.964-11.501-14.813-.134 0-.716.537-.85.537-.671.94-2.327 1.79-2.685 2.5956-.851 1.79.179 5.012-1.388 6.131-.895 0-3.312-1.298-3.983-1.7006-.4923-1.522.224-1.522 2.014-1.611-.045-1.074 0-2.73.805-4.207-.313-.358-.626-.716-.984-1.074-.4472-.761.358-2.2825.6268-3.222l-.2238-.224c-.626.8054-1.298 1.656-1.924 2.4613-.492.134-.761 0-1.298-.09-.671 1.029-1.253 2.014-1.387 6.892-.179 1.298-4.565-.806-4.609-1.611-.0897-1.074.6264-1.253 2.148-1.522-.0448-2.2376.0447-3.446.7607-4.9227-.179-.8053-.358-1.8794-.537-2.685.179-1.432 1.029-2.1032 1.835-3.3115-.403-.895-3.759-2.909-4.386-3.222-1.79 1.119-.895 3.401-2.148 3.67-.4924-.313-1.5664-.5817-2.2377-.85-1.611 1.611-.447 6.265-.7605 6.7574-.3135.492-5.46 1.432-5.3705-.224.179-.5818.94-1.074 2.059-1.5216.1342-.582-.358-2.685.4474-5.46.179-.582-.716-.492-.626-.9842.179-1.432 1.163-3.222 1.163-3.222-.3135-.2683-.4925-.224-.8505-.313-.537-.134-2.1034 1.7453-2.9984 2.2376-.5814.3134-1.1184.045-1.074 0-2.551 1.969-1.253 6.9366-1.8344 7.071-3.58 1.119-5.638-.5818-5.28-1.298.358-.224.895-1.208 2.372-1.074.224-2.014.135-4.4304 1.388-6.534.313-.492-1.298-1.074-1.074-1.611.895-2.148 1.8344-3.6695 4.206-4.833-5.907-4.654-5.012-6.31-10.83-11.009-2.9532 2.014-14.4543 4.162-16.334 2.014-2.551-2.909-.403-9.6664 3.535-8.682 4.117.985 13.202 0 13.202 0s-15.305.448-10.83-4.609c1.88-2.148 3.133-3.312 5.281-3.536 4.2068-.358 5.057.716 5.952.895.895.179 1.7454.134 2.193-.09.8504-.4022 3.4907-.805 5.057 3.312.6265 1.656 2.4166 6.266.761 8.279-3.7146 1.253-5.7284 1.253-5.1466 2.059 3.132 4.386 7.07 6.265 9.308 7.832 1.387-2.282 6.444-6.265 9.577-8.5024-3.804-1.656-4.341-4.251-5.146-6.892-1.477-4.744 1.477-7.071 2.7745-10.293.268 0 .4023-1.835.626-1.835.626.895 1.253 1.79 2.7743 1.835.4475-.4924.85-.985 1.298-1.522.8053.627.2683 1.074 1.074 1.701 1.029.313 3.1324.134 3.8485.6266 3.7143 2.551 4.475 8.279 2.7746 13.112-.582 1.7456-2.193 3.088-2.685 4.744-.448 1.566.716 4.3856.224 6.534-.581 2.6402-1.432 5.594-1.924 8.3684 1.074.761 1.477 1.074 2.685 1.5215 3.222-2.059 7.34-6.892 9.98-8.906-1.79-.358-5.191-4.341-4.52-8.9054.448-2.953.716-3.669 2.238-5.817.9843-1.343 5.1462-2.238 7.518-2.148 5.997.268 8.145 9.621 6.2204 15.797-.8057 2.6404-1.79 7.8315 1.611 8.145.4026-.269 1.969-1.164 2.0584-1.3875.09-.2684-.4026-.761-.537-.8502-.134-.134-1.835 1.074-1.835 1.074s-.492-.85-.447-.985c.0445-.134.6263-1.745.85-1.924.1344-.1346 2.2825-.806 2.596-.537.268.2234.94 1.745 1.163 2.998.358 1.79-.716 5.057-3.759 5.8174-1.88 0-4.4753-.76-5.594-2.058-.761-.85-.6266-.761-1.7006-2.596-.5814 3.222-2.909 5.013-2.998 8.503 7.742 3.849 11.546 4.296 14.813 4.386 10.9193-3.535 5.6834-19.959 13.336-33.519-3.6697 1.477-5.012-3.625-8.682-3.446-5.012.269-7.697-6.847-3.759-8.055 3.938-1.656 14.41-2.148 14.41-2.148s-5.907-1.3875-11.5907-.09c-2.864.627.1346-2.0132.627-2.3712 4.341-2.819 6.9366-1.432 14.4996-1.119 5.1915-.895 13.918-1.701 16.648 2.864 1.342 2.2377 3.177 3.177-4.52 3.222-.85 0 5.594 1.611 7.25 1.074z" fill="#423E3B"/></g></svg>