<svg viewBox="0 0 749 133" xmlns="http://www.w3.org/2000/svg" fill-rule="evenodd" clip-rule="evenodd" stroke-linejoin="round" stroke-miterlimit="1.4">
  <clipPath id="a">
    <path d="M35.8 17c.2-1.4-.2-3-1.4-4.7-1-1.7-2.7-3.2-4.8-4.5-2-1.4-4-2.2-6-2.6-2-.3-3.7 0-5 .6-1.8 1-3 4-4 9l-1.3 12c-.3 3.2 0 6.4 1 9.4.7 3 1.7 5.3 2.8 7.2 1.2 1.8 2.8 4.2 5 7 2 2.6 3.2 4.4 4 5.6.8 1 2 3 3.3 5.4 1.5 2.5 2.5 5 3.2 7.6.7 2.5 1 5.2 1.3 8.2v2l.3 2.4c.2.6.2 1.3.2 2.2v2.5l-.5 2.3c-1.2 4.8-3.7 8.4-7.5 10.7-3 1.8-7 3-12 3.4h-1c-.5.2-1 .2-1.2.2h-1.4c-.5 0-1 0-1.4-.2-2.8-1-4.4-3.8-4.8-8.2-.4-3.6 0-6.6 1.3-9 .5-1 1.3-1.2 2.3-.6 1 .5 1.2 1.3.7 2.4-1 1.7-1.2 4-1 7C8 97.2 9 99 10.5 99.6h1.2c.3 0 .7 0 1.2-.2h1c4.6-.6 8-1.5 10.6-3 3-2 5-4.7 6-8.5 0-1 .2-2 .3-2.8V83v-3c-.3-1.5-.3-2.3-.3-2.6-.2-2.7-.6-5.2-1.2-7.5s-1.6-4.6-3-7c-1.2-2.2-2.2-4-3-5l-4-5.6-4-5.5c-1-1.5-2-3.3-3-5.6-1-2.2-1.8-4.6-2-7-.5-2.5-.6-5-.3-8l1-12c1.2-6.2 3-10 6-11.6 2.3-1 4.7-1.4 7.2-1 2.5.5 5 1.5 7.3 3 2.5 1.7 4.4 3.6 6 5.8 1.4 2.3 2 4.6 1.7 7 0 .5-.3.8-.7 1-.3.4-.8.5-1.3.4-.4 0-.8-.3-1-.6-.4-.4-.5-.8-.4-1.3z"/>
  </clipPath>
  <g clip-path="url(#a)">
    <path fill="#423e3b" fill-rule="nonzero" d="M-.8-3.4h45V108h-45z"/>
  </g>
  <clipPath id="b">
    <path d="M63.2 67c-.5 2.8-1 6.7-1.5 12C61.3 84 61 89 61 94c.2 6.2.8 11 1.8 14.5 1 3.6 2.5 5.3 4.5 5.2.5 0 1-.2 1.3-.3l.8-.2c.2 0 .6-.3 1-.6l1.6-1c5-2.5 8-7.4 9.6-14.6.4-2.3.8-5.6 1.3-10 .3-4.6.6-8 1-10l.5-3.6.3-4.6.3-4 .3-3 .2-2.5V58.5v-.8l.4-.4c.3-.8 1-1 1.8-.7l.4.3.4.3v.2s0 .2.2.3c.4 2 .4 4.5 0 7.6l-.3 2c0 .8-.2 1.4-.3 1.6l-.3 3.3c-.4 7.4 0 17.7.8 31l-.2 5.3c-.2 2 0 3.4.2 4v.4l.4.2h.4l.8.2c.3 0 .7 0 1 .2.3 0 .7.3 1 .7.2.3.3.7.2 1 0 .5-.3 1-.7 1-.4.4-1 .5-1.3.4H90c-.3-.2-.7-.2-1-.3-.3 0-.6-.2-1-.4l-1.3-.8c-.3-.3-.6-.7-.8-1.2-.6-1-.8-3-.5-5.7 0-3 .2-4.6.2-4.7l-.6-8.4-.3 2.8c-1.7 8.2-5.5 13.8-11.4 16.8l-1.2.7-1.3.8c-.3 0-.7.3-1.3.5-.6.2-1.2.2-2 .2-3.5.2-6-2.3-7.6-7.3-1-3.7-1.7-8.8-1.8-15.5 0-5 0-10.2.6-15.5.5-5.4 1-9.4 1.4-12 0-.5.3-1 .7-1 .4-.4.8-.5 1.2-.4.3 0 .6.3 1 .7l.2 1z"/>
  </clipPath>
  <g clip-path="url(#b)">
    <path fill="#423e3b" d="M53 51.5h44.6V122H53z"/>
  </g>
  <clipPath id="c">
    <path d="M112.6 47.4c1 2.3 1.7 5.6 2 10 .5 5.6 1 8.8 1 9.8l1.7 7.5c.3 1.2.6 2.4.7 3.4-.2-4.6-.2-8.6 0-11.7.5-8.2 2.4-13.7 5.7-16.5 1.6-1.3 4.7-2.3 9-3 .6 0 1 0 1.3.3.4.3.6.7.6 1 0 .6 0 1-.2 1.3-.3.3-.7.5-1 .6-4 .4-6.5 1.2-7.7 2.3-2.7 2.2-4.2 7-4.7 14.2v6.3l.2 5.8.3 4.8c.2 5 .2 9.5 0 13.4v2.4l-.2.3v.2l-.3 1.4v2l-.4.6c-.4.5-1 .7-1.5.6-.3 0-.6-.2-1-.5 0-.2 0-.3-.2-.5l-.2-.6v-.8l-.4-2.3c0-1.4-.3-3.6-.5-6.3l-1-10.5c-.2-1.7-.7-4.2-1.5-7.4l-1.6-7.4c-.3-1.3-.6-4.7-1-10.3-.4-4-1-7-2-9-.4-1 0-1.7.8-2 1-.6 1.7-.3 2.2.7z"/>
  </clipPath>
  <g clip-path="url(#c)">
    <path fill="#423e3b" d="M104.4 41.4h35.2v68h-35.2z"/>
  </g>
  <clipPath id="d">
    <path d="M200.3 41.7c0 1.8-.3 4.3-.7 7.4-.6 3.6-1 6-1 7-1.4 18.6-1.6 33.3-.6 44.4.4 4.7 1 8.2 1.7 10.8 1.2 4.2 3 6.7 5.2 7.5 4 1.5 7.5.5 10-3 2-2.6 3.4-6.5 4.2-11.6 1-6.2 1.7-12.5 2-18.8 0-6.4 0-14.2-.2-23.4l-.5-19.3c0-1 .5-1.4 1.4-1.4 1 0 1.3.6 1.3 1.5l.5 19c.3 9.3.3 17.3 0 23.8 0 6.6-.7 13-1.8 19.2-1 5.6-2.6 10-4.8 13-3.3 4.6-7.8 5.8-13.3 3.8-3.3-1-5.6-4.3-7-9.4-.8-2.7-1.4-6.5-2-11.4-1-11-.6-26 .8-44.7 0-1.3.4-3.7 1-7.3.5-2.8.7-5.2.7-7 0-1 .4-1.4 1.4-1.4.8 0 1.3.5 1.3 1.4z"/>
  </clipPath>
  <g clip-path="url(#d)">
    <path fill="#423e3b" d="M189.5 35.3H229v92h-39.5z"/>
  </g>
  <clipPath id="e">
    <path d="M237.4 115.3c0-4 0-10-.4-18.2-.3-8-.4-14-.4-18 0-1 .5-1.5 1.4-1.5 1 0 1.4.4 1.4 1.4l.6 25.4c1-4.7 2.3-8.6 3.4-12 1.6-4.5 3-8 4.7-10.8 2.3-3.6 4.6-5.5 7-5.7 1.5-.3 2.8.3 4 1.5.8.8 1.6 2 2.3 3.6 1.2 2.6 2 5 2 7.5.2 1.8.3 3.8.3 6v5.4l-.5 6c0 2.4 0 4.2-.2 5.6 0 2.2 0 5.2.2 9 .3 4.6.4 7.7.4 9.4 0 1-.5 1.4-1.4 1.4-1 0-1.4-.5-1.4-1.4l-.4-9.2c-.3-4.2-.4-7.3-.2-9.4l.3-5.6.4-6v-5.2-6c-.3-2-1-4-2-6.4-.5-1.2-1-2.2-1.7-2.8-.6-.6-1-.8-1.5-.7-1.6 0-3.3 1.6-5 4.4-1.5 2.6-3 6-4.5 10.4-.8 2.4-1.5 5-2.2 7.6l-2 8c-.7 2.7-1 4.3-1 4.7l-.6 2c0 2.2-.2 4.8-.5 7.5 0 1.3-.3 2.3-.5 3 0 .6-.2 1-.3 1l-.4.7c-.4.5-1 .7-1.5.5-.4 0-.8-.4-1-1l-.3-.8V125c0-1 .3-2.3.6-4l1-5.7z"/>
  </clipPath>
  <g clip-path="url(#e)">
    <path fill="#423e3b" d="M230.7 70.8h38v65.5h-38z"/>
  </g>
  <clipPath id="f">
    <path d="M368.4 9.2c8.4 0 14.6 6.2 18.6 18.5V35c-2 8.2-3 13.5-3 15.6 5-3 9.7-4.3 14.4-4.3h1.4c11.8 0 23.2 8 34.3 24.3 2 3.5 3 7.3 3 11.4-7.5 20-20.8 30-40 30l-8.6 1.5c-9.7 0-16.8-3.4-21.4-10v-3h1.4c5.5 4.8 10.3 7.2 14.3 7.2h8.6c21 0 34.4-8 40-24.2v-5.8c-6.5-17-16.5-25.7-30-25.7 0-1-.5-1.4-1.5-1.4-5.2 0-15.6 4.8-31.4 14.2v-4.2c9.5-9.4 14.3-19 14.3-28.5v-2.8c0-5.3-3.3-10-10-14.3H367c-7.7 1-11.5 4-11.5 8.4 2 26.3 5.3 56.8 10 91.5l-3 1.3c-4.6 0-9.8-19.5-15.5-58.6V42c1.4-22 8.5-32.8 21.4-32.8zm-17 27v14.4c0 5.5.8 15 2.7 28.6h1.5v-1.5l-2.8-41.4h-1.4z"/>
  </clipPath>
  <g clip-path="url(#f)">
    <path fill="#423e3b" d="M342 4.2h100v117H342z"/>
  </g>
  <g>
    <clipPath id="g">
      <path d="M481.6 59h1c1.8 0 5 10.4 9.6 31 3.4 7 9 12.8 16.7 18 1.3-1 3-1.3 4.7-1.3v2.4c0 1.7-.8 2.5-2.4 2.5h-3.6c-13.5-9.2-20.2-18.8-20.2-28.6-1.3 0-3.3 5-6 15.4-4.7 5.5-10 8.3-15.5 8.3-9.5-.5-14.2-4.8-14.2-13 0-16.3 6.3-27.5 19-33.4h3.6c1 0 2.3 1.2 3.6 3.6v1h-1.2l-4.8-1c-11 5-16.6 15.7-16.6 32 0 3.8 4 6.2 11.8 7.2 10.3-2.3 15.5-12 15.5-28.6 0-3.3-.8-7.3-2.3-12 .8-1.5 1.2-2.6 1.2-3.5z"/>
    </clipPath>
    <g clip-path="url(#g)">
      <path fill="#423e3b" d="M446.8 54h72v62.5h-72z"/>
    </g>
  </g>
  <g>
    <clipPath id="h">
      <path d="M532.6 108.7c.4-.5 1-.7 1.5-.6l1 .3c1.2-.3 2.5-.7 4-1.3.4-.2 1-.2 1.3 0l1.8-1c2.5-2.2 4.7-5.3 6.7-9.4 1.8-3.8 3-7.7 4-11.8 1-4.2 1-7.5.8-10-.7-5.2-3.6-9.5-8.7-13-4-2.6-8.6-3.5-14-2.6-2 .3-4.5 2.3-7.6 6-3.3 4.3-5.3 8-6 11.5-1 3.3-1 7.3-.4 11.8.6 4.5 1.8 8.5 3.5 11.8 2 3.7 4.4 6.2 7.3 7.4 1.6.6 3.2 1 5 1zm2.6 2.8c-3.2.6-6.2.3-8.8-1-3.6-1.5-6.5-4.4-8.8-8.7-2-3.8-3.3-8-4-13-.5-5-.4-9.2.4-12.8 1-4 3.2-8.2 6.8-12.7 3.6-4.4 6.7-6.8 9.5-7.3 6.3-1 11.7 0 16.3 3.2 5.8 4 9.2 9 10 15 .4 3 0 6.7-.8 11-1 4.4-2.4 8.7-4.3 12.8-2.2 4.5-4.7 8-7.4 10.2-2.7 2.4-5.7 3.5-8.8 3.3z"/>
    </clipPath>
    <g clip-path="url(#h)">
      <path fill="#423e3b" d="M508.3 50.7h53.5v66h-53.5z"/>
    </g>
  </g>
  <g>
    <clipPath id="i">
      <path d="M581 3.3v5c0 1-.3 2.7-.5 4.7-.3 2-.4 3.5-.4 4.5 0 2.7 0 6.6.2 11.8.2 5.5.2 9.6 0 12.2 0 2-.2 4.8-.7 8l-.6 5c2-.2 4.5.3 7 1.5 3.3 1.7 6.4 4.2 9.5 7.7 10.4 12 13.7 24 10 35.8-1.8 5.4-5 9.6-9.2 12.6-4.3 3-9.2 4-14.6 2.8l-2.3-.3c-1.3 0-2.4-.4-3.2-1-.5-.3-.8-.7-1-1.3 0-.3-.3-.7-.3-1.2l-.6-3-.4-8.2V86.2c0-13.5 0-22.2.4-26-.4-.2-.8-.5-1-.8-.8-1-.7-2 .2-2.7l1.3-.8v-2.2l.5-2.6c0-1 .2-1.7.3-2l.8-7.7v-12c-.4-5.3-.5-9.4-.3-12.3 0-1.2.3-2.8.5-4.8l.5-4.3c0-.7 0-2.2-.2-4 0-.7 0-1 .5-1.5.3-.4.7-.7 1.2-.8.6 0 1 0 1.4.4.5.4.8.8 1 1.3zm-2.4 107.2l1 .3 3 .2c4.2 1 8.2.3 11.7-2 3.5-2.5 6-6 7.6-10.5 3.3-10.7 0-21.4-9.5-32.4-2.7-3-5.4-5.2-8-6.6-2.4-1.2-4.4-1.5-6.2-1-.4 4.3-.6 13.6-.6 27.8v13.5l.5 8c0 1 .2 2 .4 2.5v.2h-.3.3z"/>
    </clipPath>
    <g clip-path="url(#i)">
      <path fill="#423e3b" d="M567.8-3.3h44v123.6h-44z"/>
    </g>
  </g>
  <g>
    <clipPath id="j">
      <path d="M663.4 59h1c1.8 0 5 10.4 9.6 31 3.4 7 9 12.8 16.7 18 1.4-1 3-1.3 4.8-1.3v2.4c0 1.7-.8 2.5-2.4 2.5h-3.4c-13.6-9.2-20.3-18.8-20.3-28.6-1.3 0-3.3 5-6 15.4-4.7 5.5-10 8.3-15.5 8.3-9.5-.5-14.2-4.8-14.2-13 0-16.3 6.3-27.5 19-33.4h3.6c1 0 2.3 1.2 3.6 3.6v1h-1.2l-4.8-1c-11 5-16.6 15.7-16.6 32 0 3.8 4 6.2 11.8 7.2 10.4-2.3 15.5-12 15.5-28.6 0-3.3-.8-7.3-2.3-12 .8-1.5 1.2-2.6 1.2-3.5z"/>
    </clipPath>
    <g clip-path="url(#j)">
      <path fill="#423e3b" d="M628.6 54h72v62.5h-72z"/>
    </g>
  </g>
  <g>
    <clipPath id="k">
      <path d="M704.5 22.5h2.6l2.7 1.4-1.3 6.4v62.8h1.3c5.5-14 12.5-21 21-21 8 2 11.8 6.3 11.8 13.2V88c-3.4 25.3-11.3 38-23.6 38h-6.6l-6.6-1.3v2.6h-4c1.8-22.7 2.7-46 2.7-69.4V22.4zm4 98.3c1.5.8 3.2 1.2 5.2 1.2h4c11 0 18-11.8 20.8-35.3-1.2-6-3-9.2-5.2-9.2h-7.8c-11.4 9.4-17 23.8-17 43.3z"/>
    </clipPath>
    <g clip-path="url(#k)">
      <path fill="#423e3b" d="M697 17.5h50.5v114.8H697z"/>
    </g>
  </g>
</svg>
