<svg width="481" height="169" viewBox="480 572 481 169" xmlns="http://www.w3.org/2000/svg"><desc>Created with Sketch.</desc><g stroke="#fff" fill="#fff"><g><path d="M500.374 577.36c-1.581-1.028-3.242-1.739-4.902-2.056-1.66-.316-3.321-.079-4.981.712-1.897 1.107-3.162 3.558-3.874 7.669-.079.712-.395 3.321-.791 7.906-.158 1.818-.158 3.558.158 5.139.237 1.581.712 3.162 1.423 4.665.712 1.423 1.344 2.688 1.977 3.637.632.949 1.423 2.135 2.53 3.558l2.609 3.558c.553.712 1.186 1.818 2.056 3.321.791 1.423 1.423 2.925 1.818 4.348s.632 3.004.712 4.744c0 .079 0 .395.158 1.739.079.949.079 1.581.079 1.897v1.344c0 .632-.079 1.186-.237 1.66-.553 2.372-1.739 4.111-3.637 5.218-1.502.949-3.716 1.581-6.562 1.818-.079 0-.237 0-.712.079-.316.079-.553.079-.791.079-.237.079-.395.079-.553.079h-.079c-.791-.395-1.186-1.423-1.344-3.083-.237-1.818 0-3.242.474-4.269.237-.474.316-.87.158-1.186-.079-.316-.395-.632-.791-.87-.395-.237-.87-.316-1.186-.158-.316.079-.632.395-.791.791-.87 1.581-1.186 3.637-.949 6.009.316 3.004 1.423 4.902 3.321 5.613.316.158.712.158 1.107.158.316 0 .553 0 .87-.079.237 0 .474 0 .87-.079.237-.079.395-.079.553-.079 3.4-.237 6.088-1.028 7.985-2.293 2.53-1.502 4.19-3.953 4.981-7.116l.237-1.502c.079-.553.079-1.107.079-1.66 0-.553 0-1.107-.079-1.423 0-.395-.079-.87-.158-1.502s-.079-1.028-.079-1.344c-.079-1.897-.395-3.716-.87-5.376-.474-1.66-1.186-3.321-2.056-4.981l-2.135-3.558c-.474-.712-1.423-1.977-2.688-3.558-1.344-1.818-2.372-3.321-3.083-4.507-.712-1.186-1.265-2.688-1.818-4.507-.553-1.897-.712-3.874-.553-5.93.474-4.823.712-7.274.791-7.669.553-3.083 1.344-4.981 2.451-5.613.791-.395 1.739-.553 2.925-.316 1.265.237 2.53.791 3.795 1.581 1.265.791 2.293 1.739 3.004 2.846.712 1.028.949 1.977.791 2.767-.079.395 0 .791.237 1.107.237.316.553.553 1.028.553.395.079.791 0 1.107-.237.316-.237.474-.553.553-1.028.237-1.581-.158-3.242-1.186-4.744-1.028-1.581-2.293-2.846-3.953-3.874zM538.798 645.274c-.237-.079-.474-.079-.712-.079-.316 0-.395-.079-.395-.079l-.237-.079v-.079c-.079-.237-.237-.87-.079-2.451.079-2.135.158-3.162.158-3.4-.553-8.539-.791-15.259-.553-19.924 0-.553.079-1.265.158-2.056 0-.079.079-.316.158-1.107.079-.553.158-.949.158-1.265.316-2.056.316-3.716 0-5.06v-.158l-.079-.316-.316-.316c-.158-.158-.237-.237-.395-.316-.712-.237-1.265-.079-1.66.553-.158.079-.237.237-.316.474 0 .158-.079.316-.079.632v.474l-.079.237v.079c0 .316 0 .791-.079 1.66-.079.632-.079 1.344-.158 1.897-.079.553-.079 1.344-.158 2.53-.079 1.107-.158 2.135-.237 2.925-.079.791-.158 1.581-.316 2.293-.237 1.265-.474 3.479-.712 6.483-.316 2.767-.553 4.902-.87 6.325-.87 4.507-2.925 7.59-5.93 9.171l-.949.474c-.395.237-.553.316-.632.316l-.553.158c-.158.079-.395.079-.712.079-1.028.079-1.897-1.028-2.451-3.083-.632-2.135-1.028-5.297-1.028-9.25-.079-3.162.079-6.483.395-9.804.316-3.321.632-5.851.949-7.59.079-.316 0-.712-.237-1.028-.237-.316-.553-.553-.87-.553-.395-.079-.712 0-1.028.237-.316.237-.553.553-.632.949-.316 1.739-.632 4.348-.949 7.827-.316 3.4-.395 6.799-.395 10.041.079 4.348.474 7.748 1.186 10.12 1.028 3.321 2.767 5.06 5.139 5.06h.237c.474 0 .949-.079 1.344-.237.395-.158.712-.237.949-.316.158-.079.474-.237.87-.474.395-.237.632-.395.791-.474 3.637-1.818 6.009-5.139 7.274-9.883l.158 2.214c0 .158-.079 2.293-.158 3.083-.158 1.818-.079 3.083.316 3.874.158.316.395.632.632.87.237.237.553.474.87.553.316.158.553.237.791.237.158.079.395.079.712.158l.395.079c.395.079.791 0 1.107-.237.316-.237.553-.553.632-.87.079-.395 0-.712-.237-1.028-.553-.237-.791-.474-1.186-.553zM566.47 602.502c-.316-.237-.632-.316-1.028-.237-3.004.474-4.981 1.107-6.088 2.056-2.214 1.897-3.479 5.534-3.795 10.911-.079.949-.079 2.056-.079 3.242-.316-1.423-.553-2.609-.632-2.767-.158-.632-.316-2.688-.632-6.167-.237-2.925-.712-5.139-1.423-6.641-.395-.791-1.107-1.107-1.897-.712-.395.158-.712.474-.791.791-.158.316-.079.712.079 1.107.553 1.186.949 3.083 1.186 5.692.316 3.637.474 5.771.632 6.641 0 .158.237 1.107 1.107 4.823.474 2.056.791 3.637.949 4.744 0 .158.158 1.423.632 6.72.158 1.739.237 3.162.395 4.111.079.553.079 1.028.158 1.502.079.158.079.316.079.395v.079c.079.237.079.395.158.474.079.158.158.237.237.316.237.237.474.474.949.474h.158c.474 0 .791-.237 1.107-.553.158-.158.237-.316.316-.553l.079-.474v-.7909999999999999c.079-.474.079-.791.158-.87v-.079c.079-.158.079-.237.079-.316v-.395c0-.316 0-.712.079-1.186.158-2.53.158-5.376 0-8.618 0-.079 0-.632-.158-3.083-.158-1.897-.158-3.162-.158-3.716v-4.032c.316-4.586 1.265-7.59 2.846-8.934.712-.632 2.293-1.107 4.665-1.423.395-.079.712-.237.949-.553.237-.316.316-.632.237-1.028-.079-.395-.237-.712-.553-.949zM629.324 597.837c0-.395-.158-1.265-1.581-1.265s-1.581.949-1.581 1.265c0 2.293.158 6.483.395 12.413.237 5.93.316 10.99.158 15.101-.158 4.032-.712 8.064-1.581 12.096-.712 3.242-1.897 5.692-3.4 7.353-2.056 2.135-4.665 2.688-8.143 1.739-1.739-.474-3.162-2.056-4.111-4.586-.632-1.581-1.107-3.874-1.423-6.799-.87-7.116-.632-16.682.553-28.541.079-.712.316-2.214.712-4.507.395-1.977.632-3.637.632-4.823 0-.395-.158-1.265-1.581-1.265s-1.581.949-1.581 1.265c0 1.107-.158 2.609-.474 4.348-.474 2.372-.791 3.874-.87 4.665-1.265 12.017-1.423 21.821-.553 28.937.395 3.162.949 5.613 1.502 7.353 1.265 3.4 3.321 5.534 6.088 6.325 1.423.395 2.846.632 4.111.632 2.925 0 5.455-1.028 7.432-3.162 1.897-1.977 3.321-4.902 4.111-8.618.87-3.953 1.423-8.143 1.581-12.413.158-4.269.158-9.408-.158-15.338-.158-5.851-.237-9.962-.237-12.175zM661.027 622.504c-.553-1.107-1.265-1.897-2.056-2.451-1.107-.87-2.293-1.186-3.558-1.107-2.135.158-4.19 1.502-6.088 3.874-1.344 1.739-2.688 4.111-4.032 7.116-.712 1.581-1.423 3.479-2.214 5.613-.316-8.222-.395-13.045-.395-14.231 0-.395-.158-1.265-1.581-1.265s-1.581.949-1.581 1.265c0 2.609.079 6.641.316 11.78.237 5.139.316 9.092.316 11.622-.395 1.265-.712 2.53-.949 3.558-.316 1.107-.474 2.056-.553 2.846v1.107c.079.237.158.474.316.632.237.395.632.712 1.186.791.632.079 1.186-.079 1.581-.474.158-.158.316-.316.395-.474.158-.158.237-.395.316-.712.158-.553.316-1.186.395-2.056.316-1.739.395-3.4.395-4.902.158-.474.316-.87.395-1.186.079-.237.316-1.265.87-3.004.553-1.739 1.107-3.479 1.66-5.139.553-1.66 1.186-3.321 1.897-4.823 1.186-2.767 2.451-4.981 3.716-6.562 1.344-1.739 2.609-2.609 3.874-2.688.316 0 .632.079.949.395.474.395.949.949 1.423 1.739.791 1.423 1.344 2.846 1.502 4.032.079 1.186.158 2.372.158 3.716 0 1.344 0 2.451-.079 3.4-.079.87-.158 2.214-.316 3.874l-.316 3.558c-.079 1.344-.079 3.4.158 6.167.237 2.846.316 4.823.316 5.851 0 .395.158 1.265 1.581 1.265s1.581-.949 1.581-1.265c0-1.107-.079-3.083-.316-6.088-.237-2.451-.316-4.348-.158-5.771.079-.87.158-2.056.237-3.558.158-1.66.316-3.004.316-3.953.079-.949.079-2.135.079-3.558s-.079-2.688-.158-3.874c.079-1.739-.553-3.4-1.581-5.06zM732.974 602.739h-.949c-2.846 0-5.851.87-8.776 2.451.158-1.66.791-4.823 1.818-9.329v-4.823c-2.609-8.143-6.72-12.255-12.334-12.255-8.539 0-13.282 7.274-14.231 21.584v10.199c4.981 34.155 8.381 38.029 10.515 38.029h.079l2.214-1.028v-.316c-3.004-22.216-5.218-42.061-6.404-58.901 0-2.688 2.293-4.427 6.957-5.139h3.558c4.111 2.609 6.167 5.613 6.167 8.855v1.818c0 6.088-3.083 12.175-9.092 18.105l-.079.079v3.637l.632-.395c10.041-6.088 16.761-9.092 20.082-9.092.395 0 .553.158.553.553v.395h.395c8.46 0 14.864 5.455 18.896 16.208v3.558c-3.558 10.12-12.096 15.259-25.379 15.259h-5.534c-2.53 0-5.534-1.502-8.934-4.507l-.079-.079h-1.502v2.372l.079.079c3.004 4.348 7.748 6.641 14.152 6.641l5.455-.949c12.492 0 21.347-6.562 26.169-19.607v-.158c0-2.688-.632-5.297-1.897-7.59-7.274-10.357-14.785-15.654-22.533-15.654zm-28.937 20.635v.553h-.158c-1.186-8.46-1.739-14.547-1.739-18.026v-8.855h.158l1.739 26.328zM807.845 650.097c-4.823-3.162-8.301-6.957-10.357-11.148-4.507-20.161-5.851-20.161-6.483-20.161h-1.107v.395c0 .474-.237 1.186-.712 2.135l-.079.158.079.158c.949 2.925 1.502 5.455 1.502 7.59 0 10.515-3.242 16.524-9.566 18.026-4.823-.632-7.274-2.056-7.274-4.269 0-10.278 3.479-17.077 10.357-20.319l2.925.712h1.265v-1.265l-.079-.079c-.87-1.66-1.739-2.53-2.688-2.53h-2.451c-8.301 3.874-12.492 11.227-12.492 21.821 0 5.534 3.242 8.46 9.566 8.855 3.716 0 7.116-1.818 10.278-5.534l.079-.079v-.079c1.581-6.325 2.609-8.539 3.083-9.25.316 6.167 4.823 12.175 13.203 17.947l.079.079h2.372c1.265 0 1.977-.712 1.977-1.977v-1.977h-.395c-1.186.079-2.214.316-3.083.791zM832.275 610.329c-3.004-1.977-6.641-2.688-10.752-2.056-1.897.316-3.953 1.897-6.325 4.823-2.372 2.925-3.874 5.771-4.427 8.381-.553 2.372-.632 5.218-.158 8.381.395 3.162 1.265 6.009 2.53 8.46 1.502 2.846 3.479 4.823 5.851 5.851 1.186.553 2.451.791 3.874.791.632 0 1.344-.079 2.056-.158 2.135.158 4.111-.632 6.009-2.214 1.818-1.502 3.4-3.795 4.823-6.72 1.265-2.688 2.214-5.455 2.846-8.301.553-2.846.791-5.297.474-7.195-.712-4.032-2.925-7.353-6.799-10.041zm-9.329 31.783c-1.028 0-1.977-.237-2.925-.632-1.739-.712-3.242-2.293-4.507-4.586-1.107-2.135-1.897-4.586-2.293-7.511-.395-2.846-.316-5.376.237-7.511.474-2.135 1.739-4.507 3.874-7.195 1.897-2.372 3.4-3.637 4.586-3.795.87-.158 1.66-.237 2.451-.237 2.372 0 4.507.632 6.325 1.897 3.162 2.214 5.06 4.902 5.455 8.064.237 1.581.079 3.716-.474 6.325-.553 2.609-1.423 5.139-2.53 7.59-1.265 2.609-2.688 4.507-4.111 5.851-.316.237-.632.474-.949.632-.316-.158-.712-.158-1.107 0-.791.395-1.581.632-2.372.791l-.474-.158c-.474 0-.87.158-1.186.474zM857.733 612.384c-1.502-.712-3.004-1.107-4.348-1.028l.395-2.688c.316-2.135.474-3.953.553-5.297.079-1.66 0-4.348-.079-7.906-.158-3.321-.237-5.851-.079-7.59 0-.632.079-1.581.237-2.846.158-1.265.316-2.293.316-3.083.079-.791 0-1.897-.079-3.242-.079-.474-.316-.791-.632-1.028s-.791-.395-1.186-.316c-.474.079-.791.316-1.028.632s-.395.791-.316 1.186c.079 1.265.158 2.135.079 2.688-.079.553-.158 1.502-.316 2.767s-.237 2.293-.316 3.162c-.079 1.818-.079 4.507.079 7.985.079 3.4.158 6.009.079 7.669-.079 1.265-.237 2.846-.474 4.823-.079.316-.158.712-.237 1.344-.079.632-.158 1.186-.237 1.66l-.158 1.186c-.237.158-.474.316-.632.474-.791.632-.87 1.502-.237 2.293.158.237.316.395.553.474-.237 2.688-.316 8.222-.316 16.524 0 3.716 0 6.641.079 8.776.079 2.214.158 3.953.237 5.297.079.791.237 1.423.237 1.977.079.316.158.632.237.791.158.474.395.791.712.949.553.474 1.344.712 2.293.791l1.423.158c1.028.237 1.977.316 2.925.316 2.451 0 4.744-.712 6.72-2.135 2.846-1.977 4.902-4.823 6.009-8.301 2.53-7.748.316-15.654-6.483-23.481-1.818-2.293-3.874-3.953-6.009-4.981zm9.646 27.513c-.949 2.846-2.53 5.06-4.744 6.562-2.135 1.502-4.665 1.897-7.353 1.344h-.079s-.237 0-1.818-.158c0 0-.079 0-.316-.079-.079-.395-.158-.87-.237-1.502-.079-1.344-.237-3.083-.237-5.139-.079-2.056-.079-4.981-.079-8.697 0-8.776.158-14.705.395-17.552.949-.237 2.135 0 3.321.632 1.739.87 3.479 2.293 5.139 4.19 6.088 6.878 8.143 13.757 6.009 20.398zM925.014 650.097c-4.823-3.162-8.301-6.957-10.357-11.148-4.507-20.161-5.851-20.161-6.483-20.161h-1.107v.395c0 .474-.237 1.186-.712 2.135l-.079.158.079.158c.949 2.925 1.502 5.455 1.502 7.59 0 10.515-3.242 16.524-9.566 18.026-4.823-.632-7.274-2.056-7.274-4.269 0-10.278 3.479-17.077 10.357-20.319l2.925.712h1.265v-1.265l-.079-.079c-.87-1.66-1.739-2.53-2.688-2.53h-2.451c-8.301 3.874-12.492 11.227-12.492 21.821 0 5.534 3.242 8.46 9.566 8.855 3.716 0 7.116-1.818 10.278-5.534l.079-.079v-.079c1.581-6.325 2.609-8.539 3.083-9.25.316 6.167 4.823 12.175 13.203 17.947l.079.079h2.372c1.265 0 1.977-.712 1.977-1.977v-1.977h-.474c-1.107.079-2.135.316-3.004.791zM950.867 629.778h-.079c-5.534 0-10.199 4.507-13.757 13.44h-.158v-40.005l.87-4.507-2.056-1.028h-2.135v23.165c0 15.101-.553 30.122-1.66 44.67v.395h3.4v-1.581l3.795.791h4.19c8.143 0 13.361-8.381 15.575-24.904v-1.66c-.079-4.586-2.767-7.59-7.985-8.776zm4.507 9.646c-1.818 14.864-6.246 22.374-13.124 22.374h-2.53c-1.107 0-2.135-.237-3.004-.632.079-12.175 3.637-21.347 10.752-27.197h4.902c1.265 0 2.293 1.897 3.004 5.455z" id="Shape"/></g><g><path d="M564.888 716.348h.395c.632 0 1.66 3.558 3.242 10.594 1.107 2.293 3.004 4.348 5.692 6.088.474-.237 1.028-.395 1.66-.395v.791c0 .553-.237.791-.791.791h-1.265c-4.586-3.162-6.957-6.404-6.957-9.804-.474 0-1.107 1.739-2.056 5.297-1.66 1.897-3.4 2.846-5.297 2.846-3.242-.158-4.902-1.66-4.902-4.427 0-5.534 2.135-9.329 6.483-11.385h1.186c.395 0 .791.395 1.265 1.186v.395h-.395l-1.581-.395c-3.795 1.739-5.692 5.376-5.692 10.99 0 1.265 1.344 2.135 4.032 2.451 3.558-.791 5.297-4.032 5.297-9.804 0-1.107-.237-2.53-.791-4.111.395-.474.474-.87.474-1.107zM585.128 715.478c3.795 1.028 5.692 3.874 5.692 8.539v2.846h-1.186v-1.581c0-4.586-1.344-7.432-4.111-8.539h-.791c-2.293 0-3.874 4.19-4.902 12.571h-1.186v-.395l-1.265-8.143h.395c.791.158 1.186 1.107 1.186 2.846h.395c1.186-5.455 3.083-8.143 5.771-8.143zM599.517 716.348h1.186v12.175h-1.581l.395-2.846v-9.329zm1.66-12.255h.791c.553.079.791.395.791.791v.791c0 .395-.395.791-1.265 1.265h-.791c-.553 0-.791-.237-.791-.791v-.791c.079-.395.474-.87 1.265-1.265zM622.999 717.139h1.265c3.004 2.135 4.427 5.613 4.427 10.594-.237 1.502-.395 2.609-.395 3.242h-.395c-.553 0-.791-.237-.791-.791v-5.297c0-2.451-1.107-4.586-3.242-6.483h-.395c-2.53 0-4.427 2.688-5.692 8.143h-.474c-.237 0-.949-1.502-2.056-4.427l-1.66-1.265c-1.107 0-1.739 3.004-2.056 8.934v1.265h-.791c-.553 0-1.107-1.897-1.581-5.692v-2.846h1.265v2.846h.395c.474-3.795 1.107-5.692 2.056-5.692h1.186c.632.237 1.739 1.186 3.242 2.846h.395c.079-2.293 1.818-4.111 5.297-5.376zM646.875 716.348h.395c.632 0 1.66 3.558 3.242 10.594 1.107 2.293 3.004 4.348 5.692 6.088.474-.237 1.028-.395 1.66-.395v.791c0 .553-.237.791-.791.791h-1.186c-4.586-3.162-6.957-6.404-6.957-9.804-.474 0-1.107 1.739-2.056 5.297-1.66 1.897-3.4 2.846-5.297 2.846-3.242-.158-4.902-1.66-4.902-4.427 0-5.534 2.135-9.329 6.483-11.385h1.186c.395 0 .791.395 1.265 1.186v.395h-.395l-1.581-.395c-3.795 1.739-5.692 5.376-5.692 10.99 0 1.265 1.344 2.135 4.032 2.451 3.558-.791 5.297-4.032 5.297-9.804 0-1.107-.237-2.53-.791-4.111.237-.474.395-.87.395-1.107zM661.027 710.972h.791c.553.079.791.395.791.791v3.242l.395 4.111c4.269-1.107 6.562-1.66 6.957-1.66.553.079.791.395.791.791v.791h-.395l-.791-.395c-4.348 1.186-6.483 1.977-6.483 2.451v9.013c0 .553-.237.791-.791.791h-.395v-9.804l-4.032.395h-.791v-1.265h.395l4.032-.395v-.791c-.079-1.66-.158-4.348-.474-8.064zM675.654 716.348h1.186v12.175h-1.581l.395-2.846v-9.329zm1.581-12.255h.791c.553.079.791.395.791.791v.791c0 .395-.395.791-1.265 1.265h-.791c-.553 0-.791-.237-.791-.791v-.791c.079-.395.474-.87 1.265-1.265zM692.336 714.688h2.056c2.609 0 4.665 1.897 6.088 5.692v1.265c-1.265 6.246-4.111 9.329-8.539 9.329-3.083 0-5.376-2.293-6.957-6.957 2.056-6.246 4.507-9.329 7.353-9.329zm-.791 1.186c-2.925 3.004-4.744 5.692-5.297 8.143 1.581 3.795 3.637 5.692 6.088 5.692 4.586-1.028 6.878-4.269 6.878-9.804-1.739-2.688-3.4-4.032-4.902-4.032-.87.553-1.581.791-2.056.791.079-.474-.237-.791-.712-.791zM715.343 715.478c3.795 1.028 5.692 3.874 5.692 8.539v2.846h-1.186v-1.581c0-4.586-1.344-7.432-4.111-8.539h-.791c-2.293 0-3.874 4.19-4.902 12.571h-1.186v-.395l-1.265-8.143h.395c.791.158 1.186 1.107 1.186 2.846h.395c1.107-5.455 3.004-8.143 5.771-8.143zM757.245 715.478c.87 0 1.818 2.451 2.846 7.274-1.186 4.902-3.4 7.353-6.483 7.353-.632 0-1.818-.791-3.637-2.451 0 1.66-1.344 3.242-4.032 4.902-2.451 0-3.637-3.242-3.637-9.804v-4.032h1.581l-.395 2.056v1.265c.237 5.93.949 8.934 2.056 8.934h.791c.87 0 1.897-2.056 3.242-6.088h.791c0 1.897 1.186 3.242 3.637 4.032 3.242-1.66 4.902-3.716 4.902-6.088 0-1.581-.87-3.716-2.451-6.483 0-.553.316-.87.791-.87zM774.323 714.688h2.056c2.609 0 4.665 1.897 6.088 5.692v1.265c-1.265 6.246-4.111 9.329-8.539 9.329-3.083 0-5.376-2.293-6.957-6.957 2.056-6.246 4.507-9.329 7.353-9.329zm-.791 1.186c-3.004 3.004-4.744 5.692-5.297 8.143 1.581 3.795 3.637 5.692 6.088 5.692 4.586-1.028 6.878-4.269 6.878-9.804-1.739-2.688-3.4-4.032-4.902-4.032-.87.553-1.581.791-2.056.791.079-.474-.237-.791-.712-.791zM796.223 713.027h.791v1.186c-2.688 0-4.427.791-5.297 2.451.237 4.902.395 8.064.395 9.329l-.395 2.056h-1.581v-1.265l.791-1.186c-.237-4.902-.395-8.064-.395-9.329 1.028-2.135 2.925-3.242 5.692-3.242zM801.441 700.852h.791c.553 0 1.107 1.186 1.581 3.637-.158 1.897-.474 2.846-.791 2.846.237.553.395.949.395 1.186.237 11.78.395 18.184.395 19.133l-.791.395h-.395v-.316c-.237-8.143-.395-12.887-.395-14.231-.632 0-1.028-.712-1.265-2.056l.791-4.032c-.237-2.372-.395-4.427-.395-6.088v-.474h.079zm9.725 9.725c.553.079.791.316.791.791-3.795 3.558-5.851 5.692-6.088 6.483 4.032 0 6.088.949 6.088 2.846.791 1.897 1.265 3.637 1.265 5.297h-1.265c-.712-4.586-1.818-6.878-3.242-6.878-2.372.237-3.874.395-4.427.395v-1.66c.474-1.107 2.767-3.479 6.878-7.274zM826.108 711.446h.791c.553.079.791.395.791.791v.395h-1.265c-2.293 0-4.19 1.107-5.692 3.242v1.186c6.799.632 10.199 2.53 10.199 5.692.237 0 .395.553.395 1.66 0 3.083-2.688 4.981-8.143 5.692-3.558-.395-5.297-.949-5.297-1.581v-.791h.395c2.846.791 4.665 1.186 5.297 1.186 3.321 0 5.455-1.66 6.483-4.902 0-3.4-3.4-5.297-10.199-5.692l-.791-1.265c.158-2.925 2.451-4.823 7.036-5.613zM839.232 702.433h.395v.395c.791 6.483 1.186 10.99 1.186 13.44v10.12h.395c1.186-5.692 3.637-8.539 7.353-8.539h2.451c2.53 0 4.032 2.451 4.427 7.353.237 1.423.395 2.767.395 4.032v2.451c0 .553-.237.791-.791.791h-.791l.395-2.056v-1.107c-.632-6.088-1.502-9.329-2.451-9.725h-5.613c-1.186 0-3.083 3.637-5.692 10.99h-1.186v-.474c0-2.925-.158-5.376-.395-7.353.237-2.846.395-5.139.395-6.878l-1.265-13.045.791-.395zM869.513 714.688h2.056c2.609 0 4.665 1.897 6.088 5.692v1.265c-1.265 6.246-4.111 9.329-8.539 9.329-3.083 0-5.376-2.293-6.957-6.957 2.056-6.246 4.507-9.329 7.353-9.329zm-.87 1.186c-3.004 3.004-4.744 5.692-5.297 8.143 1.581 3.795 3.637 5.692 6.088 5.692 4.586-1.028 6.878-4.269 6.878-9.804-1.739-2.688-3.4-4.032-4.902-4.032-.87.553-1.581.791-2.056.791.158-.474-.158-.791-.712-.791zM886.906 712.237c2.767 0 4.744 3.083 6.088 9.329 0 1.344-1.344 2.846-4.032 4.427 1.344 4.507 2.293 8.697 2.846 12.65h-.791c-.395 0-1.739-3.953-4.111-11.78h-.395c0-.316.158-.712.395-1.186-.553-3.083-1.186-4.981-2.056-5.692.158-5.139.87-7.748 2.056-7.748zm.395 1.265c-.553.87-.791 1.66-.791 2.451v.395c0 .632.712 3.479 2.056 8.539 2.135-1.107 3.242-2.609 3.242-4.507-1.186-3.4-2.688-5.692-4.507-6.878z"/></g></g></svg>