<?xml version="1.0" encoding="UTF-8" standalone="no"?>
<svg width="19px" height="18px" viewBox="0 0 19 18" version="1.1" xmlns="http://www.w3.org/2000/svg" xmlns:xlink="http://www.w3.org/1999/xlink">
    <!-- Generator: Sketch 3.7 (28169) - http://www.bohemiancoding.com/sketch -->
    <title>Shape</title>
    <desc>Created with Sketch.</desc>
    <defs></defs>
    <g id="Actualités" stroke="none" stroke-width="1" fill="none" fill-rule="evenodd">
        <g id="Desktop-HD" transform="translate(-346.000000, -449.000000)" fill="#D9A613">
            <g id="bloc_gauche" transform="translate(195.000000, 367.000000)">
                <g id="zone_text" transform="translate(0.000000, 0.000000)">
                    <g id="infos_publish" transform="translate(3.470443, 79.761063)">
                        <g id="calendar.1" transform="translate(148.452114, 2.501314)">
                            <g id="Calendar">
                                <path d="M15.6054718,1.95068398 L14.6301299,1.95068398 L14.6301299,3.90136796 L11.7041039,3.90136796 L11.7041039,1.95068398 L5.85205194,1.95068398 L5.85205194,3.90136796 L2.92602597,3.90136796 L2.92602597,1.95068398 L1.95068398,1.95068398 C0.876832449,1.95068398 0,2.82849177 0,3.90136796 L0,15.6054718 C0,16.678348 0.876832449,17.5561558 1.95068398,17.5561558 L15.6054718,17.5561558 C16.678348,17.5561558 17.5561558,16.678348 17.5561558,15.6054718 L17.5561558,3.90136796 C17.5561558,2.82849177 16.678348,1.95068398 15.6054718,1.95068398 L15.6054718,1.95068398 Z M15.6054718,15.6054718 L1.95068398,15.6054718 L1.95068398,7.80273592 L15.6054718,7.80273592 L15.6054718,15.6054718 L15.6054718,15.6054718 Z M5.36438095,0 L3.41369697,0 L3.41369697,3.41369697 L5.36438095,3.41369697 L5.36438095,0 L5.36438095,0 Z M14.1424589,0 L12.1917749,0 L12.1917749,3.41369697 L14.1424589,3.41369697 L14.1424589,0 L14.1424589,0 Z" id="Shape"></path>
                            </g>
                        </g>
                    </g>
                </g>
            </g>
        </g>
    </g>
</svg>