<?xml version="1.0" encoding="UTF-8" standalone="no"?>
<svg width="23px" height="23px" viewBox="0 0 23 23" version="1.1" xmlns="http://www.w3.org/2000/svg" xmlns:xlink="http://www.w3.org/1999/xlink">
    <!-- Generator: Sketch 3.7 (28169) - http://www.bohemiancoding.com/sketch -->
    <title>Shape</title>
    <desc>Created with Sketch.</desc>
    <defs></defs>
    <g id="Accueil" stroke="none" stroke-width="1" fill="none" fill-rule="evenodd">
        <g id="Deskopt-HD" transform="translate(-1125.000000, -18.000000)" fill="#CCCCCC">
            <g id="NAVIGATION-+-TOP" transform="translate(0.000000, -1.000000)">
                <g id="social_nav" transform="translate(1125.000000, 18.000000)">
                    <g id="facebook" transform="translate(0.000000, 0.447394)">
                        <g id="Layer_1">
                            <g id="facebook">
                                <path d="M20.8005603,0.907673999 L2.90300104,0.907673999 C1.77065315,0.907673999 0.852124446,1.8262027 0.852124446,2.95923811 L0.852124446,20.8554224 C0.852124446,21.9891453 1.77065315,22.907674 2.90300104,22.907674 L20.7998728,22.907674 C21.9335957,22.907674 22.8521244,21.9891453 22.8521244,20.8561099 L22.8521244,2.95923811 C22.8521244,1.8262027 21.9335957,0.907673999 20.8005603,0.907673999 L20.8005603,0.907673999 Z M14.6018666,7.78288885 C14.6018666,8.16308823 14.2945445,8.47041033 13.9143451,8.47041033 L11.8517807,8.47041033 L11.8517807,10.5329748 L13.9143451,10.5329748 C14.2945445,10.5329748 14.6018666,10.8402969 14.6018666,11.2204963 L14.6018666,12.5955392 C14.6018666,12.9757386 14.2945445,13.2830607 13.9143451,13.2830607 L11.8517807,13.2830607 L11.8517807,18.7832326 C11.8517807,19.163432 11.5444586,19.4707541 11.1642592,19.4707541 L9.78921623,19.4707541 C9.40901685,19.4707541 9.10169475,19.163432 9.10169475,18.7832326 L9.10169475,13.2830607 L8.41417326,13.2830607 C8.03397388,13.2830607 7.72665178,12.9757386 7.72665178,12.5955392 L7.72665178,11.2204963 C7.72665178,10.8402969 8.03397388,10.5329748 8.41417326,10.5329748 L9.10169475,10.5329748 L9.10169475,8.47041033 C9.10169475,6.95167537 10.3330457,5.72032439 11.8517807,5.72032439 L13.9143451,5.72032439 C14.2945445,5.72032439 14.6018666,6.0276465 14.6018666,6.40784588 L14.6018666,7.78288885 L14.6018666,7.78288885 Z" id="Shape"></path>
                            </g>
                        </g>
                    </g>
                </g>
            </g>
        </g>
    </g>
</svg>