<?xml version="1.0" encoding="UTF-8" standalone="no"?>
<svg width="22px" height="22px" viewBox="0 0 22 22" version="1.1" xmlns="http://www.w3.org/2000/svg" xmlns:xlink="http://www.w3.org/1999/xlink">
    <!-- Generator: Sketch 3.7 (28169) - http://www.bohemiancoding.com/sketch -->
    <title>Shape</title>
    <desc>Created with Sketch.</desc>
    <defs></defs>
    <g id="Accueil" stroke="none" stroke-width="1" fill="none" fill-rule="evenodd">
        <g id="Deskopt-HD" transform="translate(-1209.000000, -19.000000)" fill="#CCCCCC">
            <g id="NAVIGATION-+-TOP" transform="translate(0.000000, -1.000000)">
                <g id="social_nav" transform="translate(1110.000000, 20.000000)">
                    <g id="instagram" transform="translate(99.000000, 0.000000)">
                        <g id="Instagram">
                            <path d="M19.5555556,0 L2.44444444,0 C1.1,0 0,1.1 0,2.44444444 L0,19.5555556 C0,20.9012222 1.1,22 2.44444444,22 L19.5555556,22 C20.9,22 22,20.9012222 22,19.5555556 L22,2.44444444 C22,1.1 20.9,0 19.5555556,0 L19.5555556,0 Z M10.9804444,17.7503333 C14.7192222,17.7503333 17.7491111,14.718 17.7491111,10.9804444 C17.7491111,10.5673333 17.6965556,10.1688889 17.6232222,9.77777778 L19.5555556,9.77777778 L19.5555556,18.5973333 C19.5555556,19.0642222 19.1766667,19.4406667 18.7085556,19.4406667 L3.29144444,19.4406667 C2.82333333,19.4406667 2.44444444,19.0642222 2.44444444,18.5973333 L2.44444444,9.77777778 L4.33766667,9.77777778 C4.26311111,10.1688889 4.21055556,10.5673333 4.21055556,10.9804444 C4.21055556,14.7192222 7.24288889,17.7503333 10.9804444,17.7503333 L10.9804444,17.7503333 Z M6.75033333,10.9804444 C6.75033333,8.64355556 8.64477778,6.75033333 10.9816667,6.75033333 C13.3173333,6.75033333 15.213,8.64355556 15.213,10.9804444 C15.213,13.3173333 13.3173333,15.2117778 10.9816667,15.2117778 C8.64355556,15.2117778 6.75033333,13.3173333 6.75033333,10.9804444 L6.75033333,10.9804444 Z M18.7085556,6.11111111 L16.7346667,6.11111111 C16.2677778,6.11111111 15.8888889,5.72977778 15.8888889,5.26533333 L15.8888889,3.289 C15.8888889,2.82211111 16.2677778,2.44444444 16.7334444,2.44444444 L18.7073333,2.44444444 C19.1766667,2.44444444 19.5555556,2.82211111 19.5555556,3.289 L19.5555556,5.26411111 C19.5555556,5.72977778 19.1766667,6.11111111 18.7085556,6.11111111 L18.7085556,6.11111111 Z" id="Shape"></path>
                        </g>
                    </g>
                </g>
            </g>
        </g>
    </g>
</svg>