<?xml version="1.0" encoding="UTF-8" standalone="no"?>
<svg width="21px" height="22px" viewBox="0 0 21 22" version="1.1" xmlns="http://www.w3.org/2000/svg" xmlns:xlink="http://www.w3.org/1999/xlink">
    <!-- Generator: Sketch 3.7 (28169) - http://www.bohemiancoding.com/sketch -->
    <title>Group 4</title>
    <desc>Created with Sketch.</desc>
    <defs></defs>
    <g id="Actualités" stroke="none" stroke-width="1" fill="none" fill-rule="evenodd">
        <g id="Desktop-HD" transform="translate(-960.000000, -238.000000)" fill="#FFFFFF">
            <g id="filtrer" transform="translate(952.000000, 231.000000)">
                <g id="fleche" transform="translate(0.253949, 0.000000)">
                    <g id="croissant" transform="translate(7.095666, 7.000000)">
                        <g id="Group-4">
                            <g id="arrow" transform="translate(5.785413, 11.257325) rotate(-90.000000) translate(-5.785413, -11.257325) translate(-4.714587, 5.757325)">
                                <path d="M21,4.35558449 L21,6.64443135 C21,6.75569477 20.9642369,6.84709027 20.89271,6.91861645 C20.8211839,6.99014262 20.7297891,7.02590642 20.6185256,7.02590642 L5.74101784,7.02590642 L5.74101784,9.69622836 C5.74101784,9.86312348 5.66551751,9.97836033 5.51451686,10.0419396 C5.36351692,10.1055182 5.2244373,10.0856503 5.09727941,9.98233377 L0.519584268,5.80995575 C0.440110503,5.73048198 0.400373977,5.63908719 0.400373977,5.53577137 C0.400373977,5.42450795 0.440110503,5.32913901 0.519584268,5.24966524 L5.09727941,1.02960311 C5.2244373,0.918339693 5.36351692,0.894496923 5.51451686,0.95807622 C5.66551751,1.02960311 5.74101784,1.14483996 5.74101784,1.30378749 L5.74101784,3.97410942 L20.6185256,3.97410942 C20.7297891,3.97410942 20.8211839,4.00987251 20.89271,4.0813994 C20.9642369,4.15292557 21,4.24432108 21,4.35558449 L21,4.35558449 Z" id="Shape"></path>
                            </g>
                            <g id="arrow-copy" transform="translate(16.785413, 11.257325) rotate(-270.000000) translate(-16.785413, -11.257325) translate(6.285413, 5.757325)">
                                <path d="M21,4.35558449 L21,6.64443135 C21,6.75569477 20.9642369,6.84709027 20.89271,6.91861645 C20.8211839,6.99014262 20.7297891,7.02590642 20.6185256,7.02590642 L5.74101784,7.02590642 L5.74101784,9.69622836 C5.74101784,9.86312348 5.66551751,9.97836033 5.51451686,10.0419396 C5.36351692,10.1055182 5.2244373,10.0856503 5.09727941,9.98233377 L0.519584268,5.80995575 C0.440110503,5.73048198 0.400373977,5.63908719 0.400373977,5.53577137 C0.400373977,5.42450795 0.440110503,5.32913901 0.519584268,5.24966524 L5.09727941,1.02960311 C5.2244373,0.918339693 5.36351692,0.894496923 5.51451686,0.95807622 C5.66551751,1.02960311 5.74101784,1.14483996 5.74101784,1.30378749 L5.74101784,3.97410942 L20.6185256,3.97410942 C20.7297891,3.97410942 20.8211839,4.00987251 20.89271,4.0813994 C20.9642369,4.15292557 21,4.24432108 21,4.35558449 L21,4.35558449 Z" id="Shape"></path>
                            </g>
                        </g>
                    </g>
                </g>
            </g>
        </g>
    </g>
</svg>