<?xml version="1.0" standalone="no"?>
<!DOCTYPE svg PUBLIC "-//W3C//DTD SVG 1.1//EN" "http://www.w3.org/Graphics/SVG/1.1/DTD/svg11.dtd" >
<svg xmlns="http://www.w3.org/2000/svg">
<metadata>Generated by IcoMoon</metadata>
<defs>
<font id="icon_font" horiz-adv-x="1024">
<font-face units-per-em="1024" ascent="960" descent="-64" />
<missing-glyph horiz-adv-x="1024" />
<glyph unicode="&#x20;" horiz-adv-x="0" d="" />
<glyph unicode="&#xe900;" glyph-name="instagram2" horiz-adv-x="1001" d="M697.103 632.8h-56.149c-10.234 0-18.571-8.337-18.571-18.633v-56.087c0-10.265 8.337-18.602 18.602-18.602h56.149c10.234 0 18.571 8.337 18.571 18.633v56.087c0 10.265-8.337 18.602-18.602 18.602v0zM664.16 437.663c0-90.522-73.849-162.318-164.62-162.318s-164.589 70.8-164.589 161.385c0 14.994 1.991 40.564 5.848 40.564h-60.597v-227.706c0-8.399 16.705-21.184 25.104-21.184h388.5c8.337 0 21.9 12.785 21.9 21.153v227.706h-57.424c3.826 0 5.879-24.606 5.879-39.6v0zM902.847 943.873h-809.787c-51.265 0-92.824-41.559-92.824-92.824v-809.755c0-51.296 41.559-92.855 92.824-92.855h809.755c51.296 0 92.855 41.559 92.855 92.824v809.787c0 51.265-41.559 92.824-92.824 92.824v0zM777.92 235.683c0-35.4-37.235-69.494-72.791-69.494h-412.483c-35.525 0-74.658 34.094-74.658 69.494v412.826c0 35.431 39.133 77.613 74.658 77.613h412.483c35.556 0 72.791-42.182 72.791-77.613v-412.826zM591.276 446.156c0-51.54-41.782-93.322-93.322-93.322s-93.322 41.782-93.322 93.322c0 51.54 41.782 93.322 93.322 93.322s93.322-41.782 93.322-93.322z" />
<glyph unicode="&#xe901;" glyph-name="uniE900" horiz-adv-x="1476" d="M727 935q56 0 106-22t86.5-60 58-88.5 21.5-108.5-21.5-108.5-58-88.5-86.5-60-106-22-105.5 22-86.5 60-58.5 88.5-21.5 108.5 21.5 108.5 58.5 88.5 86.5 60 105.5 22zM727 315q-69 0-129.5-24t-105.5-66-71-98.5-26-120.5v-62h665v62q0 64-26.5 120.5t-71.5 98.5-105.5 66-129.5 24v0zM1218 960q39 0 74-15.5t61.5-42 41.5-62.5 15-77-15-77-41.5-62.5-61.5-42-74-15.5q-40 0-75 15.5t-61 42-41.5 62.5-15.5 77 15.5 77 41.5 62.5 61 42 75 15.5zM1218 522q-49 0-92-17t-74.5-47-50-69.5-18.5-85.5v-44h469v44q0 46-18 85.5t-50 69.5-75 47-91 17v0zM235 960q40 0 75-15.5t61-42 41-62.5 15-77-15-77-41-62.5-61-42-75-15.5-75 15.5-61 42-41 62.5-15 77 15 77 41 62.5 61 42 75 15.5zM235 522q-49 0-91.5-17t-74.5-47-50.5-69.5-18.5-85.5v-44h470v44q0 46-18.5 85.5t-50.5 69.5-74.5 47-91.5 17v0z" />
<glyph unicode="&#xe902;" glyph-name="uniE901" horiz-adv-x="1144" d="M509 793q2 7 4.5 14.5t5.5 14.5q8 19 18 36t22 32l-310-127q26-4 50.5-13.5t45.5-23.5zM779 960q-23 0-46.5-4.5t-46.5-13.5q-48-20-82-55t-52.5-78.5-19.5-92.5 19-96q10-24 24.5-45t31.5-38h345q52 51 68.5 124.5t-13.5 145.5q-29 71-92 112t-136 41v0 0zM695 826l38-93-93-39q-5 38 9.5 73.5t45.5 58.5v0zM667 629l93 38 38-93q-38-5-73 10t-58 45v0zM798 759l-38 93q38 6 73.5-9t58.5-46l-94-38zM863 601l-38 93 93 38q5-38-9.5-73t-45.5-58v0zM349 537h73q-1 16-5 31.5t-10 30.5q-25 61-79 96t-117 35q-20 0-40-3.5t-40-11.5q-40-17-69.5-47t-45-67.5-16.5-79.5 16-82q21-53 64.5-86t95.5-42v93q-17 5-31.5 15t-26.5 24l65 26q12 30 38.5 49t60.5 19h67zM92 508q-3 30 8.5 57.5t34.5 46.5l30-74-73-30zM200 639q30 2 57.5-9.5t46.5-34.5l-73-30-31 74zM352 255h353v-141h-353v141zM951 502h-669q-29 0-50-20.5t-21-49.5v-423q0-29 21-50t50-21h669q29 0 50 21t21 50v423q0 29-21 49.5t-50 20.5v0 0zM740 114q0-14-10.5-24.5t-24.5-10.5h-353q-14 0-24.5 10.5t-10.5 24.5v141q0 15 10.5 25.5t24.5 10.5h353q14 0 24.5-10.5t10.5-25.5v-141zM1092 432h-35v-247h35q15 0 25 10.5t10 24.5v176q0 15-10 25.5t-25 10.5v0 0z" />
<glyph unicode="&#xe903;" glyph-name="uniE902" d="M890 957h-781q-44 0-75.5-31t-31.5-75v-782q0-44 31.5-75t75.5-31h781q44 0 75.5 31t31.5 75v782q0 44-31.5 75t-75.5 31v0 0zM890 815v-568q0-15-10.5-25.5t-24.5-10.5h-711q-15 0-25 10.5t-10 25.5v568q0 15 10.5 25.5t24.5 10.5h711q14 0 24.5-10.5t10.5-25.5v0 0zM436 737q10-39-10.5-72.5t-58.5-43.5q-39-10-72.5 10.5t-43.5 58.5q-10 39 10.5 72.5t58.5 43.5q39 10 72.5-10.5t43.5-58.5zM662 650q-8 13-19.5 13t-19.5-13l-101-161q-8-13-21.5-14.5t-24.5 9.5l-30 30q-11 11-26 11t-26-11l-184-182q-10-11-7-18t18-7h620q16 0 21 8.5t-3 21.5l-197 313z" />
<glyph unicode="&#xe904;" glyph-name="uniE903" horiz-adv-x="1355" d="M1191 960h-1054q-56 0-96.5-40.5t-40.5-96.5v-744q0-57 40.5-97.5t96.5-40.5h1054q57 0 97.5 40.5t40.5 97.5v744q0 56-40.5 96.5t-97.5 40.5v0 0zM905 422l-364-222q-7-4-17.5-4t-17.5 4q-8 4-13.5 11.5t-5.5 15.5v444q0 8 5.5 15.5t13.5 11.5q7 5 16 4.5t16-4.5l366-222q7-4 11.5-11.5t4.5-15.5-4-15.5-11-11.5v0 0z" />
<glyph unicode="&#xe905;" glyph-name="uniE904" d="M0 897v-950l127 127 22 21 41 42 33 32 30 31h697q26 0 44.5 18.5t18.5 45.5v633q0 26-18.5 44.5t-44.5 18.5h-887q-26 0-44.5-18.5t-18.5-44.5v0zM823 390h-633v127h633v-127zM823 643h-633v127h633v-127z" />
<glyph unicode="&#xe906;" glyph-name="uniE905" horiz-adv-x="1000" d="M912 759h-318q7 0 10.5-2.5t6.5-5.5q1 0 1-0.5v-0.5q-1 1-1 1.5t-1 2.5l-0.5 1.5-1.5 3.5-5 10-5 7-18-15 17-17 142 147q11 12 11 28.5t-12 28.5q-11 11-27.5 11.5t-28.5-11.5l-143-146 18-17 13 20q-16 10-34 16t-37 6-36-5.5-33-14.5l13-20 17 16-145 145q-12 12-28 12t-28-12q-12-11-12-27.5t12-28.5l143-146 17 17-18 15q-3-3-5.5-7.5t-4.5-10.5l-3-6-2-3h1q2 3 6 5.5t10 2.5h-318q-36 0-60.5-22t-24.5-57v-638q0-35 25-62.5t60-27.5h827q35 0 60 27.5t25 62.5v638q0 35-25 57t-60 22v0 0zM912 711q17 0 27-8.5t10-22.5v-638q0-16-11.5-29.5t-25.5-13.5h-827q-14 0-25.5 13.5t-11.5 29.5v638q0 14 10 22.5t27 8.5h318q7 0 12 3t8 7q2 2 3 3.5t2 3.5q1 3 2.5 5.5t3.5 6.5q1 4 2 5.5l1 1.5 15 17-159 162q2-2 2-5.5t-2-5.5q-3-3-6-3t-6 3l159-159 16 10q10 7 20.5 10t22.5 3 23-3.5 21-10.5l17-11 156 160q-2-2-5.5-2t-5.5 2-2 5 2 6l-157-163 13-16 1-1.5 2-4.5q1-2 1.5-3.5t1.5-2.5q0-1 1-2.5t1-3.5q2-2 3-3.5t2-3.5q4-4 8.5-7t11.5-3h318zM497 68q-10 0-17 7t-7 17 7 16.5 17 6.5 16.5-6.5 6.5-16.5-6.5-17-16.5-7v0zM497 21q29 0 50 20.5t21 50.5q0 29-21 50t-50 21q-30 0-50.5-21t-20.5-50q0-30 20.5-50.5t50.5-20.5v0zM878 221h-759l24-24v443l-24-24h759l-24 24v-443zM878 173h24v491h-807v-491h783z" />
<glyph unicode="&#xe907;" glyph-name="uniE907" horiz-adv-x="1097" d="M1097 573q0 63-29 125.5t-76 111.5-107 79.5-121 30.5q-56 0-110.5-24t-94.5-64l-517-516q-21-21-31.5-51t-10.5-60q0-46 23.5-93.5t60.5-86 82.5-63.5 89.5-25q30 0 59 11t50 33l431 426q24 25 42 61t18 71q0 53-38 92t-87 39q-35 0-70-18t-59-43l-346-359q-5-6-9-14.5t-4-18.5q0-19 13.5-33.5t32.5-14.5q9 0 17.5 4t14.5 10l345 359q11 11 28.5 22t33.5 11q15 0 25-10.5t10-26.5q0-15-10.5-33.5t-21.5-29.5l-430-426q-8-9-20.5-12.5t-22.5-3.5q-26 0-55 17t-53.5 42.5-41 55.5-16.5 57q0 10 3.5 23t10.5 21l518 516q27 27 64 43t74 16q43 0 86-22.5t78-58.5 56.5-81 21.5-89q0-37-15.5-77t-41.5-66l-422-415q-7-7-10.5-15.5t-3.5-17.5q0-20 13.5-34t32.5-14q9 0 17.5 3.5t15.5 9.5l422 416q40 39 62.5 95.5t22.5 114.5v0 0z" />
<glyph unicode="&#xe908;" glyph-name="uniE908" d="M1009 455q0 105-39.5 197t-108 160.5-160.5 108-196 39.5q-105 0-197-39.5t-160.5-108-108-160.5-39.5-197q0-104 39.5-196t108-160.5 160.5-108 197-39.5q104 0 196 39.5t160.5 108 108 160.5 39.5 196zM505 855q82 0 155-31.5t127-85.5 85.5-127 31.5-156q0-82-31.5-155t-85.5-127-127-85.5-155-31.5q-83 0-156 31.5t-127 85.5-85.5 127-31.5 155q0 83 31.5 156t85.5 127 127 85.5 156 31.5v0 0zM505 219l236 236-236 237v-132h-211v-210h211v-131z" />
<glyph unicode="&#xe909;" glyph-name="uniE909" d="M512 960q-106 0-199.5-40t-163-109.5-109.5-163-40-199.5 40-199.5 109.5-163 163-109.5 199.5-40 199.5 40 163 109.5 109.5 163 40 199.5-40 199.5-109.5 163-163 109.5-199.5 40v0zM512 43q-84 0-158 31.5t-129 86.5-86.5 129-31.5 158 31.5 158 86.5 129 129 86.5 158 31.5 158-31.5 129-86.5 86.5-129 31.5-158-31.5-158-86.5-129-129-86.5-158-31.5v0 0zM512 688l-240-240 240-240v133h213v214h-213v133z" />
<glyph unicode="&#xe90a;" glyph-name="uniE90A" horiz-adv-x="1142" d="M1118 773q-14 16-33.5 25t-40.5 9h-755l-13 38q-12 36-42.5 58.5t-68.5 22.5h-107q-24 0-41.5-17.5t-17.5-41.5q0-25 17.5-42.5t41.5-17.5l106 1 200-599q12-36 38-61.5t60-38.5q-14-13-21.5-31t-7.5-39q0-40 28.5-69t69.5-29 69.5 29 28.5 69q0 17-5 32t-15 28h237q-9-13-14.5-28t-5.5-32q0-40 29-69t70-29 69.5 29 28.5 69q0 17-5 32t-15 28h11q25 0 42 17t17 42q0 24-17 41.5t-42 17.5h-497q-14 0-25.5 8t-15.5 21l-3 10h511q36 0 63.5 23t33.5 59l59 356q4 21-2 41.5t-20 37.5v0 0zM433 492h-39l-6 18-6 61h51v-79zM433 650h-58l-7 79h65v-79zM590 335h-79v79h79v-79zM590 492h-79v79h79v-79zM590 650h-79v79h79v-79zM748 335h-79v79h79v-79zM748 492h-79v79h79v-79zM748 650h-79v79h79v-79zM877 335h-51v79h57l-7-76q0-1 0.5-1.5t0.5-1.5v0zM890 492h-64v79h72zM905 650h-79v79h86zM1003 351q-1-7-6.5-11.5t-12.5-4.5h-29l7 79h52l-11-63zM1027 492h-57l7 79h63l-13-79zM1053 650h-69l7 79h53q4 0 8-2t6-5q3-3 4-7t0-8l-9-57z" />
<glyph unicode="&#xe90b;" glyph-name="uniE90B" horiz-adv-x="1070" d="M659 712v-593l401 317-401 324v-48zM705 712l-37-17 341-276v35l-341-270 37-18v546zM181 712v-593l401 317-401 324v-48zM227 712l-37-17 341-276v35l-341-270 37-18v546zM45 917v-91h45v91h-45zM45 735v-91h45v91h-45zM45 553v-91h45v91h-45zM45 371v-91h45v91h-45zM45 189v-91h45v91h-45zM45 7v-45h45v45h-45zM45-16l23 23v-45l-23 22h45l-22-22v45l22-23h-45zM45 30h-23v-91h91v91h-68zM45 895l23 22v-45l-23 23h45l-22-23v45l22-22h-45zM45 940h-23v-91h91v91h-68z" />
<glyph unicode="&#xe90c;" glyph-name="uniE90C" horiz-adv-x="954" d="M268 404q55 0 104 21t85 57.5 57 85.5 21 104-21 104-57 85.5-85 57.5-104 21q-56 0-104.5-21t-85-57.5-57.5-85.5-21-104 21-104 57.5-85.5 85-57.5 104.5-21v0zM268 451q-46 0-86.5 17.5t-70.5 47.5-47 70-17 86 17 86 47 70 70.5 47.5 86.5 17.5q45 0 85.5-17.5t70.5-47.5 47.5-70 17.5-86-17.5-86-47.5-70-70.5-47.5-85.5-17.5v0zM268 497q72 0 123 51.5t51 123.5-51 123-123 51q-73 0-124-51t-51-123 51-123.5 124-51.5v0 0zM268 544q-53 0-90.5 37.5t-37.5 90.5 37.5 90.5 90.5 37.5 90.5-37.5 37.5-90.5-37.5-90.5-90.5-37.5v0zM419 497v-360q0-63-44.5-107.5t-106.5-44.5q-63 0-107.5 44.5t-44.5 107.5v360h-46v-360q0-41 15.5-77t42.5-63 63-42.5 77-15.5 77 15.5 62.5 42.5 42 63 15.5 77v360h-46zM512 707h349q19 0 33-13.5t14-33.5v-256q0-19-14-32.5t-33-13.5h-396v-47h396q39 0 66 27.5t27 65.5v256q0 39-27 66t-66 27h-349v-46zM209 672q0 24 17.5 41t41.5 17v47q-44 0-74.5-31t-30.5-74h46zM337 218q25 0 42 17t17 41-17 41-42 17q-24 0-41-17t-17-41 17-41 41-17v0zM337 265q-4 0-7.5 3t-3.5 8 3.5 8.5 7.5 3.5q5 0 8.5-3.5t3.5-8.5-3.5-8-8.5-3v0zM559 404h186v47h-186v-47z" />
<glyph unicode="&#xe90d;" glyph-name="uniE90D" horiz-adv-x="1001" d="M934-3h-867q-9 0-14.5 6t-5.5 14v867q0 9 5.5 14.5t14.5 5.5h867q8 0 14-5.5t6-14.5v-867q0-8-6-14t-14-6v0zM934-50q28 0 47.5 19.5t19.5 47.5v867q0 28-19.5 47.5t-47.5 19.5h-867q-28 0-47.5-19.5t-19.5-47.5v-867q0-28 19.5-47.5t47.5-19.5h867zM110 807q14 0 24 10t10 24-10 24-24 10-24-10-10-24 10-24 24-10v0 0zM110 853q5 0 8.5-3.5t3.5-8.5-3.5-8.5-8.5-3.5-8.5 3.5-3.5 8.5 3.5 8.5 8.5 3.5v0zM197 807q14 0 24 10t10 24-10 24-24 10-24-10-10-24 10-24 24-10v0zM197 853q5 0 8.5-3.5t3.5-8.5-3.5-8.5-8.5-3.5-9 3.5-4 8.5 4 8.5 9 3.5v0zM284 807q14 0 24 10t10 24-10 24-24 10q-15 0-25-10t-10-24 10-24 25-10v0zM284 853q5 0 8.5-3.5t3.5-8.5-3.5-8.5-8.5-3.5q-6 0-9.5 3.5t-3.5 8.5 3.5 8.5 9.5 3.5v0zM23 731h954v47h-954v-47zM132 644h737l-23 24v-131l23 24h-737l23-24v131zM132 691h-24v-177h784v177h-760zM132 124h737l-23 23v-87l23 24h-737l23-24v87zM132 170h-24v-133h784v133h-760zM132 406h368v46h-368v-46zM132 319h737v47h-737v-47zM132 232h737v47h-737v-47z" />
<glyph unicode="&#xe90e;" glyph-name="uniE90E" horiz-adv-x="1001" d="M891-7h-781q-26 0-44.5 18.5t-18.5 44.5v868l-24-23h716q17 0 29.5-12.5t12.5-29.5v-803q0-45 32-77.5t78-32.5q45 0 77.5 32.5t32.5 77.5v846h-47v-846q0-26-18.5-44.5t-44.5-18.5q-27 0-45.5 18.5t-18.5 44.5v803q0 36-26 62t-62 26h-739v-891q0-45 32-77.5t78-32.5h781v47zM867 902v-846h47v846h-47zM132 792h260l-23 23v-260l23 23h-260l23-23v260zM132 839h-24v-307h307v307h-283zM479 792h195v47h-195v-47zM479 705h195v47h-195v-47zM479 619h195v46h-195v-46zM479 532h195v46h-195v-46zM132 402h542v46h-542v-46zM132 315h542v47h-542v-47zM132 228h260v47h-260v-47zM132 142h260v46h-260v-46zM132 55h260v46h-260v-46zM479 228h195l-23 24v-174l23 23h-195l23-23v174zM479 275h-24v-220h242v220h-218z" />
<glyph unicode="&#xe90f;" glyph-name="uniE90F" horiz-adv-x="924" d="M906 424l-862-481q-8-4-14-4.5t-12 2.5q-5 4-8 9.5t-3 14.5v958q0 8 3 14t8 9q6 3 12 2.5t14-4.5l862-480q7-4 11-9t4-11-4-11-11-9v0 0z" />
<glyph unicode="&#xe910;" glyph-name="uniE910" d="M326.078 946.206q84.133 0 155.432-41.288t112.723-112.458 41.424-155.214q0-82.747-31.887-183.336t-77.395-185.044-91.016-157.089-77.395-114.119l-31.887-41.485q-12.58 15.689-33.459 43.44t-74.249 110.185-94.161 161.002-74.249 181.125-33.459 185.321q0 128.164 90.636 218.562t218.942 90.398zM326.078 466.298q45.378 0 83.874 22.372t60.866 60.884 22.37 83.916q0 69.232-48.957 118.202t-118.153 48.97q-45.434 0-83.944-22.374t-60.869-60.88-22.359-83.918q0-69.248 48.95-118.21t118.222-48.962z" />
<glyph unicode="&#xe911;" glyph-name="uniE911" d="M519 951q-103 0-193.5-39t-158-106.5-106.5-158-39-193.5 39-193.5 106.5-158 158-106.5 193.5-39 193.5 39 158 106.5 106.5 158 39 193.5-39 193.5-106.5 158-158 106.5-193.5 39v0zM519 89q-76 0-142 29t-116 78.5-78.5 115.5-28.5 142q0 75 28.5 141.5t78.5 116 116 78 142 28.5q75 0 141.5-28.5t116-78 78-116 28.5-141.5q0-76-28.5-142t-78-115.5-116-78.5-141.5-29v0zM784 487h-208q-5 0-14.5 10t-9.5 14v242q0 13-10 23t-23 10q-14 0-24-10t-10-23v-242q-24-9-28.5-24t-4.5-33q0-28 19.5-47.5t47.5-19.5q18 0 33.5 4.5t23.5 29.5h208q13 0 23 9.5t10 23.5q0 13-10 23t-23 10v0 0z" />
<glyph unicode="&#xe912;" glyph-name="uniE912" horiz-adv-x="964" d="M556 71q0-6-2-11.5t-7-9.5l-47-47q-5-5-10-7.5t-11-2.5q-7 0-12 2.5t-10 7.5l-437 436q-5 5-7 10.5t-2 11.5 2 11.5 7 10.5l437 436q5 5 10 7.5t12 2.5q6 0 11-2.5t10-7.5l47-46q5-5 7-10.5t2-11.5-2-11.5-7-10.5l-368-368 368-368q5-5 7-10.5t2-11.5v0 0zM916 71q0-6-2-11.5t-7-9.5l-47-47q-5-5-10-7.5t-11-2.5q-7 0-12 2.5t-10 7.5l-437 436q-5 5-7 10.5t-2 11.5 2 11.5 7 10.5l437 436q5 5 10 7.5t12 2.5q6 0 11-2.5t10-7.5l47-46q5-5 7-10.5t2-11.5-2-11.5-7-10.5l-368-368 368-368q5-5 7-10.5t2-11.5v0 0z" />
<glyph unicode="&#xe913;" glyph-name="uniE913" horiz-adv-x="964" d="M365 71q0-6 2.5-11.5t7.5-9.5l46-47q5-5 10.5-7.5t11.5-2.5 11.5 2.5 10.5 7.5l436 436q5 5 7.5 10.5t2.5 11.5-2.5 11.5-7.5 10.5l-436 436q-5 5-10.5 7.5t-11.5 2.5-11.5-2.5-10.5-7.5l-46-46q-5-5-7.5-10.5t-2.5-11.5 2.5-11.5 7.5-10.5l368-368-368-368q-5-5-7.5-10.5t-2.5-11.5v0 0zM5 71q0-6 2.5-11.5t7.5-9.5l46-47q5-5 10.5-7.5t11.5-2.5 11.5 2.5 10.5 7.5l436 436q5 5 7.5 10.5t2.5 11.5-2.5 11.5-7.5 10.5l-436 436q-5 5-10.5 7.5t-11.5 2.5-11.5-2.5-10.5-7.5l-46-46q-5-5-7.5-10.5t-2.5-11.5 2.5-11.5 7.5-10.5l368-368-368-368q-5-5-7.5-10.5t-2.5-11.5v0 0z" />
<glyph unicode="&#xe914;" glyph-name="uniE914" horiz-adv-x="1081" d="M940 834h-55v-111h-167v111h-333v-111h-166v111h-56q-45 0-78-32.5t-33-78.5v-666q0-45 33-78t78-33h777q46 0 78.5 33t32.5 78v666q0 46-32.5 78.5t-78.5 32.5v0 0zM940 57h-777v444h777v-444zM358 945h-111v-194h111v194zM857 945h-111v-194h111v194z" />
<glyph unicode="&#xe915;" glyph-name="uniE915" horiz-adv-x="967" d="M391 846q-39-28-52-67.5t-11-63.5q3-29 7-59.5l4-30.5-7.5-9-7.5-35q4-65 20-62t20-25q11-69 29-78.5t18-47.5q0-62-30.5-98t-110.5-70q-41-18-80-38t-70-45-50-55-19-68v-51h910v51q0 38-19 68t-50 55-70 45-80 38q-80 34-110.5 70t-30.5 98q0 38 18 47.5t29 78.5q4 28 20 25t20 62q0 26-7.5 34.5l-7.5 8.5 4 31 7 60q2 31-21 83.5t-96 73.5q-12 13-13.5 32t37.5 40q-85 4-120-30.5t-80-67.5v0 0z" />
<glyph unicode="&#xe916;" glyph-name="uniE916" horiz-adv-x="977" d="M186 925h106q4 0 7.5-1.5t5.5-3.5q3-3 4-6t1-7v-692h124q6 0 10-3t6-8q3-5 2-10t-4-9l-195-214q-2-2-5.5-3.5t-6.5-1.5q-4 0-7.5 1.5t-6.5 3.5l-196 214q-4 4-5 9t2 10q2 5 6 8t10 3h124v692q0 4 1 7t4 6q2 2 5.5 3.5t7.5 1.5v0 0zM804-53h-106q-4 0-7.5 1.5t-5.5 3.5q-3 3-4 6t-1 7v693h-124q-6 0-10 2.5t-6 7.5q-3 5-2 10t4 9l195 214q2 2 5.5 3.5t6.5 1.5q4 0 7.5-1.5t6.5-3.5l196-214q4-4 5-9t-2-10q-2-5-6-7.5t-10-2.5h-124v-693q0-4-1-7t-4-6q-2-2-5.5-3.5t-7.5-1.5v0 0z" />
<glyph unicode="&#xe917;" glyph-name="uniE917" horiz-adv-x="1170" d="M1159 343l-580 438-579-438v179l579 438 580-438v-179zM1014 359v-423h-290v282h-289v-282h-290v423l434 318 435-318z" />
<glyph unicode="&#xe918;" glyph-name="uniE918" horiz-adv-x="1252" d="M1160 21h-1048q-11 0-19 8t-8 19v800q0 11 8 19t19 8h1048q11 0 19-8t8-19v-800q0-11-8-19t-19-8v0zM1160-36q35 0 59.5 25t24.5 59v800q0 34-24.5 59t-59.5 25h-1048q-34 0-59-25t-25-59v-800q0-34 25-59t59-25h1048zM37 883l522-497q33-31 77-30.5t75 31.5l524 495-39 42-524-497q-15-15-36.5-15t-38.5 16l-520 496-40-41zM76-28l496 441-38 42-496-441zM1234 14l-496 441-38-42 496-441z" />
<glyph unicode="&#xe919;" glyph-name="uniE919" horiz-adv-x="935" d="M676 699h-218v-109h218v109zM676 536h-218v-54h218v54zM404 699h-163v-217h163v217zM404 373h272v54h-272v-54zM567 264h109v54h-109v-54zM676 209h-435v-54h435v54zM513 318h-272v-54h272v54zM350 427h-109v-54h109v54zM839 917h-762q-22 0-38-16t-16-39v-870q0-23 16-39t38-16h762q23 0 39 16t16 39v870q0 23-16 39t-39 16v0zM785 46h-653v762h653v-762z" />
<glyph unicode="&#xe91a;" glyph-name="uniE91A" horiz-adv-x="1130" d="M666 276q4 33 15 55t31 37q15 11 27 11.5t28-9.5q33-21 66-41.5t66-41.5q17-10 22-23.5t-1-32.5q-13-44-51.5-71.5t-84.5-28.5q-40 0-76.5 10t-71.5 26q-48 24-91 53t-80.5 64.5-70 76.5-59.5 87q-25 44-41 91t-12 99q3 45 25.5 76t62.5 49q21 9 39 4t29-23q21-33 41.5-66t40.5-67q10-16 8.5-29t-13.5-27q-4-5-8.5-10t-10.5-8q-16-8-32-14.5t-34-14.5q21-35 47-67.5t55.5-61.5 63-54.5 70.5-48.5v0zM32-56q23 9 43.5 17t40.5 16q37 15 74.5 30t74.5 30q5 1 11 0.5t10-3.5q41-29 85.5-50t93.5-33 99-15 100 3q57 7 110 25.5t102 49.5q38 24 71 53t60 62.5 47.5 71.5 35.5 81q24 70 27 141t-17 142q-18 66-48 121t-72 99-94.5 77.5-116.5 56.5q-69 25-141 29t-145-12q-77-17-143.5-53.5t-121.5-93.5q-53-55-86.5-119.5t-46.5-140.5q-14-82-3.5-160t49.5-152q4-9 4-16.5t-4-16.5q-24-56-47.5-112.5t-47.5-112.5q-1-2-1.5-5.5t-2.5-9.5v0z" />
<glyph unicode="&#xe91b;" glyph-name="uniE91B" horiz-adv-x="1063" d="M457 384q-37 37-71 75.5t-57 73.5-30 63.5 10 45.5q49 48 70.5 94t-63.5 153q-86 106-146.5 61.5t-107.5-91.5q-27-27-26.5-88t31.5-143 94.5-179 162.5-197q100-100 197-163.5t179.5-94.5 143-31 87.5 27q47 47 92 107t-62 146-152.5 64-94.5-70q-17-17-45.5-10t-63 29.5-73 56.5-75.5 71v0 0z" />
<glyph unicode="&#xe91c;" glyph-name="uniE91C" horiz-adv-x="1425" d="M492 414q13 12 13.5 29.5t-13.5 30.5l-429 398q-10-17-16-36.5t-6-40.5v-706q0-20 5-38.5t14-34.5l432 398zM918 366q-13 13-32 13t-33-13l-90-83q-14-12-33-12t-32 12l-95 88q-13 12-32 12t-32-12l-437-403q19-15 42.5-23t48.5-8h1070q25 0 47 7.5t41 20.5l-433 401zM1396 868l-431-399q-14-12-14-29.5t14-30.5l429-398q10 17 15.5 37t5.5 41v706q0 19-5 37.5t-14 35.5v0 0zM698 369q13-12 32-12t33 12l592 546q-19 15-42.5 23t-49.5 8h-1070q-24 0-46.5-7.5t-40.5-20.5l592-549z" />
<glyph unicode="&#xe91d;" glyph-name="uniE91D" d="M998 847q0 38-26.5 64.5t-64.5 26.5h-797q-38 0-64.5-26.5t-26.5-64.5v-797q0-37 26.5-64t64.5-27h797q38 0 64.5 26.5t26.5 64.5v797zM765 563q1-4 1-8v-8q0-65-24-130.5t-70.5-119-115-87-156.5-33.5q-55 0-105 15.5t-93 43.5q8-1 15.5-1.5t15.5-0.5q45 0 85.5 14.5t73.5 40.5q-42 1-75.5 26.5t-45.5 63.5q6-1 10.5-1.5t11.5-0.5q8 0 12.5 1t12.5 4q-44 9-80 44.5t-36 82.5v2q23-8 39-12t32-5q-26 18-36 46.5t-10 61.5q0 18 5 34.5t13 31.5q48-59 117-95.5t149-40.5q-2 7-2.5 14.5t-0.5 15.5q0 53 37.5 91t91.5 38q27 0 51.5-11t42.5-30q22 5 42.5 13t38.5 19q-7-23-21.5-41.5t-34.5-30.5q19 2 37.5 7.5t36.5 13.5q-13-20-29.5-37t-35.5-31v0 0z" />
<glyph unicode="&#xe91e;" glyph-name="uniE91E" d="M926 944h-797q-38 0-64.5-26.5t-26.5-64.5v-797q0-38 26.5-64.5t64.5-26.5h797q38 0 64.5 26.5t26.5 64.5v797q0 38-26.5 64.5t-64.5 26.5v0 0zM650 638q0-13-9-22t-22-9h-91v-91h91q13 0 22-9t9-22v-61q0-13-9-22t-22-9h-91v-245q0-12-9-21t-22-9h-61q-13 0-22 9t-9 21v245h-30q-13 0-22 9t-9 22v61q0 13 9 22t22 9h30v91q0 51 36 87t87 36h91q13 0 22-9t9-22v-61z" />
<glyph unicode="&#xe91f;" glyph-name="uniE91F" d="M988 845q0 38-27 64.5t-65 26.5h-797q-37 0-64-26.5t-27-64.5v-797q0-38 27-64.5t64-26.5h797q38 0 65 26.5t27 64.5v797zM782 547q-3-16-31.5-88t-86.5-155q-22-31-50.5-59.5t-62.5-49.5q-13-8-35-14.5t-39 1.5q-33 14-48 61.5t-25 86.5q-5 23-11 44.5t-13 41.5q-5 15-9 30t-12 28q-13 23-31 13t-38-7q-8 1-11 4.5t-7 10.5q-1 2-2 5.5t2 6.5q28 23 54.5 48t59.5 45q11 6 27 11t31 0q13-4 23.5-19.5t15.5-30.5q5-18 8.5-38t6.5-38q5-30 8.5-70t25.5-65q25-26 43.5-2.5t28.5 42.5q9 16 16 33t8 32q3 38-13.5 47t-50.5 7q19 59 62 86t60 30q32 5 59.5-4.5t34.5-37.5q2-6 3-15.5t-1-20.5v0 0z" />
<glyph unicode="&#xe920;" glyph-name="uniE920" d="M503 415h-10q-5 0-8.5-3.5t-3.5-7.5v-119q0-5-2-10.5t-5-9.5l-4.5-3.5-9.5-3.5h-4q-2 3-3 6t-1 4v136q0 4-3.5 7.5t-7.5 3.5h-11q-5 0-8.5-3.5t-3.5-7.5v-124q0-4 0.5-11t0.5-11l0.5-6 1.5-11q3-7 8.5-10t13.5-3q9 0 19.5 7.5l10.5 7.5q3 3 5.5 2t2.5-5 3.5-7 8.5-3h10q5 0 8.5 3.5t3.5 7.5v163q0 4-3.5 7.5t-8.5 3.5v0 0zM511 596q9 0 11.5 7l2.5 7q1 5 1.5 11.5t0.5 11.5v67q0 13-3.5 19.5t-12.5 6.5q-8 0-11-7.5l-3-7.5q0-4-1-10.5t-1-11.5v-67q0-13 4-19.5t12-6.5v0 0zM402 478h-94q-5 0-8-3t-3-8v-12q0-5 3-8.5t8-3.5h17q4 0 7.5-3t3.5-8v-191q0-4 3.5-7.5t7.5-3.5h15q5 0 8 3.5t3 7.5v191q0 5 3.5 8t8.5 3h17q5 0 8 3.5t3 8.5v12q0 5-3 8t-8 3v0 0zM639 396q-4 11-10.5 16t-16.5 5q-9 0-17.5-6l-8.5-6q-4-3-6.5-2t-2.5 6v58q0 5-3 8t-8 3h-11q-5 0-8-3t-3-8v-226q0-4 3-7.5t8-3.5h11q5 0 8 2.5t3 6.5 2.5 4.5 6.5-3.5l8.5-6 17.5-6q10 0 15.5 5.5l5.5 5.5q2 4 4.5 9.5t2.5 9.5q1 5 1.5 19.5t0.5 19.5v74l-1 10-2 15zM609 294q0-4-1-10.5t-2-11.5l-2.5-7-9.5-7q-4 0-6 1l-2 1q-3 2-6 7.5t-3 10.5v90q0 4 3 9.5t6 8.5l2 0.5 6 0.5q7 0 9.5-7l2.5-7q1-5 2-11.5t1-10.5v-57zM758 398q-7 10-17 14.5t-22 4.5q-13 0-23-4.5t-18-14.5q-5-7-7-19.5l-2-12.5q0-5-0.5-11.5t-0.5-10.5v-43q0-4 0.5-11t0.5-11l2.5-13 7.5-19q7-10 17-14.5t24-4.5q13 0 23 5t17 15q3 4 4 6.5l1 2.5q1 4 2 9t1 7 0.5 10 0.5 9-3.5 1.5-8.5 0.5h-11q-5 0-8.5-3t-3.5-7q0-5-1.5-11.5t-3.5-11.5l-2-1.5-8-1.5q-9 0-12 7.5l-3 7.5q-1 4-1.5 10.5t-0.5 11.5v10q0 5 3 8.5t8 3.5h44q5 0 8.5 3t3.5 8v16q0 4-0.5 10.5t-1.5 11.5l-2 12.5-7 19.5zM724 344h-11q-5 0-8 2.5t-3 6.5q0 3 0.5 9t1.5 11l3 7 11 7q9 0 12-7l3-7q1-5 1.5-11t0.5-9q0-4-3.5-6.5t-7.5-2.5v0 0zM929 952h-797q-37 0-64-26.5t-27-64.5v-797q0-38 27-64.5t64-26.5h797q38 0 65 26.5t27 64.5v797q0 38-27 64.5t-65 26.5v0 0zM589 743q0 5 3.5 8t8.5 3h11q4 0 7.5-3t3.5-8v-140q1-3 3-5t5-2q5 0 9.5 3.5l4.5 3.5q3 3 5.5 9t2.5 11v120q0 5 3 8t8 3h11q5 0 8.5-3t3.5-8v-164q0-5-3.5-8.5t-8.5-3.5h-11q-5 0-8 3.5t-3 8.5v9q-10-12-20-17.5t-19-5.5q-8 0-13.5 3.5t-8.5 10.5q-1 4-1.5 10l-0.5 6q0 5-0.5 11.5t-0.5 11.5v125zM461 693q0 15 3 26t8 18q7 10 17 15t22 5q13 0 23-5t17-15q5-7 7-19.5l2-12.5q1-5 1-11.5v-65.5q0-15-2.5-26t-7.5-18q-7-10-17-14.5t-23-4.5q-12 0-22 4.5t-17 14.5q-5 7-7.5 20l-2.5 13q0 4-0.5 10.5t-0.5 11.5v54zM343 818h16q5 0 9-3t6-8l20-76q2-5 3.5-5t2.5 5l20 76q1 5 5.5 8t8.5 3h16q4 0 6.5-3t1.5-8l-39-127q-1-5-2-11.5t-1-10.5v-79q0-5-3.5-8.5t-7.5-3.5h-15q-5 0-8.5 3.5t-3.5 8.5v90q-2 13-8 33t-15 46q-6 18-13 38.5l-7 20.5q-2 5 0.5 8t7.5 3v0 0zM800 219q-5-22-21.5-37t-38.5-17q-51-6-103-7t-104-1-104.5 1-103.5 7q-22 2-38.5 17t-21.5 37q-7 32-8.5 65.5t-1.5 65.5q0 33 1.5 66.5t8.5 64.5q5 22 21.5 37t38.5 18q52 5 104 6t104 1 104-1 103-6q22-3 38.5-18t21.5-37q8-31 9-64.5t1-66.5q0-32-1.5-65.5t-8.5-65.5v0 0z" />
<glyph unicode="&#xe921;" glyph-name="uniE921" d="M910 960h-796q-47 0-80.5-33.5t-33.5-80.5v-796q0-47 33.5-80.5t80.5-33.5h796q47 0 80.5 33.5t33.5 80.5v796q0 47-33.5 80.5t-80.5 33.5v0zM511 134q65 0 122.5 24.5t100.5 67.5 67.5 100.5 24.5 122.5q0 14-1.5 28t-4.5 28h90v-411q0-16-11.5-27.5t-27.5-11.5h-718q-16 0-27.5 11.5t-11.5 27.5v411h88q-3-14-4.5-28t-1.5-28q0-65 25-122.5t67.5-100.5 100-67.5 122.5-24.5v0 0zM314 449q0 41 15.5 76.5t42.5 62.5 62.5 42.5 76.5 15.5 77-15.5 62.5-42.5 42-62.5 15.5-76.5-15.5-77-42-62.5-62.5-42-77-15.5-76.5 15.5-62.5 42-42.5 62.5-15.5 77v0zM871 676h-92q-16 0-27.5 11.5t-11.5 27.5v92q0 16 11.5 27.5t27.5 11.5h92q16 0 27.5-11.5t11.5-27.5v-92q0-16-11.5-27.5t-27.5-11.5v0z" />
<glyph unicode="&#xe922;" glyph-name="uniE922" d="M495.368 832.163q-86.021 0-146.877-56.182t-60.857-135.574 60.857-135.574 146.877-56.182q86.021 0 146.878 56.182t60.857 135.574-60.857 135.574-146.878 56.182zM447.43 640.407q-26.462 0-45.191 18.728t-18.728 45.191 18.728 45.19 45.191 18.728 45.191-18.728 18.728-45.19-18.728-45.191-45.191-18.728zM495.368 960q-57.637 0-116.109-19.388t-105.865-50.393-91.307-68.5-76.301-74.991-56.725-68.5-36.7-50.393l-12.362-19.388q2.721-3.259 7.745-8.95t22.173-23.135 35.805-34.383 47.816-39.969 59.087-42.8 68.737-39.969 77.645-34.383 84.934-23.135 91.426-8.95q79.079 0 162.483 26.334t145.953 63.918 113.8 75.168 78.171 63.918l26.92 26.334q-5.13 7.347-14.552 20.001t-40.426 49.168-63.807 69.724-82.264 73.766-98.39 69.724-109.591 49.168-118.3 20.001zM511.349 416.692h-31.96q-50.838 0-100.723 13.158t-84.8 29.543-75.226 45.383-59.54 45.83-50.203 45.733q-2.249 2.099-3.461 3.229t-3.080 2.87-3.429 3.188-3.049 2.822q22.208 28.939 32.854 42.458t38.571 45.562 48.127 50.062 53.515 43.611 63.276 39.379 68.869 24.195 78.3 10.407h31.96q45.549 0 91.655-12.576t86.019-34.635 75.711-47.614 67.194-56.107 53.575-55.214 41.316-49.529q-17.989-16.674-41.908-34.972t-55.56-39.32-68.708-40.16-76.796-35.541-84.683-27.544-87.814-14.218z" />
</font>
</defs>
</svg>
