<?xml version="1.0" encoding="UTF-8" standalone="no"?>
<svg width="145px" height="86px" viewBox="0 0 145 86" version="1.1" xmlns="http://www.w3.org/2000/svg" xmlns:xlink="http://www.w3.org/1999/xlink">
    <!-- Generator: Sketch 3.7 (28169) - http://www.bohemiancoding.com/sketch -->
    <title>eye</title>
    <desc>Created with Sketch.</desc>
    <defs></defs>
    <g id="Accueil" stroke="none" stroke-width="1" fill="none" fill-rule="evenodd">
        <g id="Deskopt-HD" transform="translate(-909.000000, -4948.000000)" fill="#FFFFFF">
            <g id="affiches" transform="translate(0.000000, 4726.000000)">
                <g id="hover_affiche" transform="translate(909.000000, 222.000000)">
                    <g id="eye">
                        <g id="Layer_1">
                            <g id="eye">
                                <path d="M70.1449583,18.1019247 C53.9030063,18.1019247 40.7293306,30.2664181 40.7293306,45.2548118 C40.7293306,60.2432054 53.9030063,72.4076989 70.1449583,72.4076989 C86.3869102,72.4076989 99.5605859,60.2432054 99.5605859,45.2548118 C99.5605859,30.2664181 86.3869102,18.1019247 70.1449583,18.1019247 L70.1449583,18.1019247 Z M63.3567365,45.2548118 C58.3606053,45.2548118 54.3057741,41.1999806 54.3057741,36.2038494 C54.3057741,31.2077182 58.3606053,27.1528871 63.3567365,27.1528871 C68.3528677,27.1528871 72.4076989,31.2077182 72.4076989,36.2038494 C72.4076989,41.1999806 68.3528677,45.2548118 63.3567365,45.2548118 L63.3567365,45.2548118 Z" id="Shape"></path>
                                <path d="M70.1449583,0 C30.1532811,0 0,49.780293 0,49.780293 C0,49.780293 30.1532811,85.9841424 70.1449583,85.9841424 C110.136635,85.9841424 144.815398,49.780293 144.815398,49.780293 C144.815398,49.780293 110.136635,0 70.1449583,0 L70.1449583,0 Z M72.4076989,76.93318 L67.8822177,76.93318 C41.1139965,76.93318 23.6411137,59.0756313 13.5764435,49.780293 C23.0573266,37.4257293 40.883197,13.5764435 67.8822177,13.5764435 L72.4076989,13.5764435 C99.3116845,13.5764435 121.735444,37.4302548 131.238954,49.780293 C121.767122,58.5597264 97.6870367,75.1184621 72.4076989,76.93318 L72.4076989,76.93318 Z" id="Shape"></path>
                            </g>
                        </g>
                    </g>
                </g>
            </g>
        </g>
    </g>
</svg>