<?xml version="1.0" encoding="UTF-8" standalone="no"?>
<svg width="22px" height="18px" viewBox="0 0 22 18" version="1.1" xmlns="http://www.w3.org/2000/svg" xmlns:xlink="http://www.w3.org/1999/xlink">
    <!-- Generator: Sketch 3.7 (28169) - http://www.bohemiancoding.com/sketch -->
    <title>mail</title>
    <desc>Created with Sketch.</desc>
    <defs></defs>
    <g id="Accueil" stroke="none" stroke-width="1" fill="none" fill-rule="evenodd">
        <g id="Deskopt-HD" transform="translate(-131.000000, -21.000000)" fill="#CCCCCC">
            <g id="NAVIGATION-+-TOP" transform="translate(0.000000, -1.000000)">
                <g id="Gmail" transform="translate(126.000000, 15.000000)">
                    <g id="mail_icon">
                        <g id="mail" transform="translate(5.000000, 7.000000)">
                            <path d="M20.3939394,16.5 L1.96969697,16.5 C1.71250601,16.5 1.5,16.287494 1.5,16.030303 L1.5,1.96969697 C1.5,1.71250601 1.71250601,1.5 1.96969697,1.5 L20.3939394,1.5 C20.6511304,1.5 20.8636364,1.71250601 20.8636364,1.96969697 L20.8636364,16.030303 C20.8636364,16.287494 20.6511304,16.5 20.3939394,16.5 L20.3939394,16.5 Z M20.3939394,17.5 C21.2034151,17.5 21.8636364,16.8397787 21.8636364,16.030303 L21.8636364,1.96969697 C21.8636364,1.16022126 21.2034151,0.5 20.3939394,0.5 L1.96969697,0.5 C1.16022126,0.5 0.5,1.16022126 0.5,1.96969697 L0.5,16.030303 C0.5,16.8397787 1.16022126,17.5 1.96969697,17.5 L20.3939394,17.5 L20.3939394,17.5 Z" id="Shape"></path>
                            <path d="M0.655172414,1.36206897 L9.81880878,10.0893417 C10.6014844,10.8069177 11.778977,10.8069177 12.5050685,10.0808261 L21.7075087,1.36297634 L21.019764,0.637023658 L11.8076428,9.36429639 C11.4573866,9.71429447 10.8894247,9.71429447 10.5014987,9.35869566 L1.34482759,0.637931034 L0.655172414,1.36206897 L0.655172414,1.36206897 Z" id="Shape"></path>
                            <polygon id="Shape" points="1.33218192 17.3737047 10.0594546 9.6161289 9.39509081 8.86871958 0.667818081 16.6262953"></polygon>
                            <polygon id="Shape" points="21.6958183 16.6262953 12.9685456 8.86871958 12.3041817 9.6161289 21.0314544 17.3737047"></polygon>
                        </g>
                    </g>
                </g>
            </g>
        </g>
    </g>
</svg>