<?xml version="1.0" encoding="UTF-8" standalone="no"?>
<svg width="32px" height="23px" viewBox="0 0 32 23" version="1.1" xmlns="http://www.w3.org/2000/svg" xmlns:xlink="http://www.w3.org/1999/xlink">
    <!-- Generator: Sketch 3.7 (28169) - http://www.bohemiancoding.com/sketch -->
    <title>mail</title>
    <desc>Created with Sketch.</desc>
    <defs></defs>
    <g id="Accueil" stroke="none" stroke-width="1" fill="none" fill-rule="evenodd">
        <g id="Deskopt-HD" transform="translate(-602.000000, -5970.000000)" fill="#F5F5F5">
            <g id="footer" transform="translate(-211.000000, 5726.038276)">
                <g id="sections" transform="translate(349.000000, 86.000000)">
                    <g id="contact" transform="translate(463.000000, 0.000000)">
                        <g id="text" transform="translate(0.904704, 52.000000)">
                            <g id="tel" transform="translate(0.095296, 102.000000)">
                                <g id="mail" transform="translate(0.930639, 4.280813)">
                                    <g id="Group" transform="translate(-0.000000, 0.000000)">
                                        <g id="mail">
                                            <path d="M10.123,11.9430627 C10.522,11.5749445 10.523,10.9722992 10.125,10.6031914 L0.479,1.66246958 C0.174,2.17011654 2.27373675e-13,2.76385568 2.27373675e-13,3.39618786 L2.27373675e-13,19.2519915 C2.27373675e-13,19.8457306 0.152,20.4038454 0.424,20.8907115 L10.123,11.9430627 L10.123,11.9430627 Z" id="Shape"></path>
                                            <path d="M19.684,13.0127827 C19.286,12.6436749 18.633,12.6426853 18.233,13.0117932 L16.198,14.8889984 C15.8,15.2571167 15.146,15.2571167 14.749,14.8880088 L12.621,12.9148158 C12.224,12.545708 11.571,12.545708 11.171,12.9128367 L1.357,21.9634002 C1.928,22.3968298 2.64,22.6551063 3.414,22.6551063 L26.455,22.6551063 L27.447,22.6551063 C28.179,22.6551063 28.857,22.4215689 29.412,22.0306907 L19.684,13.0127827 L19.684,13.0127827 Z" id="Shape"></path>
                                            <path d="M30.436,1.75746784 L20.735,10.7061062 C20.337,11.0732349 20.335,11.6758801 20.733,12.0459775 L30.38,20.9876889 C30.685,20.4770732 30.859,19.8843237 30.859,19.2519915 L30.859,3.39618786 C30.859,2.80343829 30.705,2.24433394 30.436,1.75746784 L30.436,1.75746784 Z" id="Shape"></path>
                                            <path d="M14.748,12.9504401 C15.147,13.319548 15.799,13.3205375 16.199,12.9524193 L29.5,0.685768703 C28.93,0.255307829 28.219,1.8189894e-12 27.445,1.8189894e-12 L3.412,1.8189894e-12 C2.679,1.8189894e-12 2.002,0.229579133 1.445,0.620457398 L14.748,12.9504401 L14.748,12.9504401 Z" id="Shape"></path>
                                        </g>
                                    </g>
                                </g>
                            </g>
                        </g>
                    </g>
                </g>
            </g>
        </g>
    </g>
</svg>