<?xml version="1.0" encoding="UTF-8" standalone="no"?>
<svg width="21px" height="23px" viewBox="0 0 21 23" version="1.1" xmlns="http://www.w3.org/2000/svg" xmlns:xlink="http://www.w3.org/1999/xlink">
    <!-- Generator: Sketch 3.7 (28169) - http://www.bohemiancoding.com/sketch -->
    <title>News</title>
    <desc>Created with Sketch.</desc>
    <defs></defs>
    <g id="Accueil" stroke="none" stroke-width="1" fill="none" fill-rule="evenodd">
        <g id="Deskopt-HD" transform="translate(-1272.000000, -5884.000000)" fill="#FFFFFF">
            <g id="footer" transform="translate(-211.000000, 5726.038276)">
                <g id="Dark-Input-with-Button" transform="translate(1160.000000, 147.431508)">
                    <g id="Button" transform="translate(311.000000, 0.000000)">
                        <g id="news.1" transform="translate(12.517074, 11.500000)">
                            <g id="News">
                                <path d="M14.6666667,4.88888889 L9.77777778,4.88888889 L9.77777778,7.33333333 L14.6666667,7.33333333 L14.6666667,4.88888889 L14.6666667,4.88888889 Z M14.6666667,8.55555556 L9.77777778,8.55555556 L9.77777778,9.77777778 L14.6666667,9.77777778 L14.6666667,8.55555556 L14.6666667,8.55555556 Z M8.55555556,4.88888889 L4.88888889,4.88888889 L4.88888889,9.77777778 L8.55555556,9.77777778 L8.55555556,4.88888889 L8.55555556,4.88888889 Z M8.55555556,12.2222222 L14.6666667,12.2222222 L14.6666667,11 L8.55555556,11 L8.55555556,12.2222222 L8.55555556,12.2222222 Z M12.2222222,14.6666667 L14.6666667,14.6666667 L14.6666667,13.4444444 L12.2222222,13.4444444 L12.2222222,14.6666667 L12.2222222,14.6666667 Z M14.6666667,15.8888889 L4.88888889,15.8888889 L4.88888889,17.1111111 L14.6666667,17.1111111 L14.6666667,15.8888889 L14.6666667,15.8888889 Z M11,13.4444444 L4.88888889,13.4444444 L4.88888889,14.6666667 L11,14.6666667 L11,13.4444444 L11,13.4444444 Z M7.33333333,11 L4.88888889,11 L4.88888889,12.2222222 L7.33333333,12.2222222 L7.33333333,11 L7.33333333,11 Z M18.3333333,0 L1.22222222,0 C0.546333333,0 -4.54747351e-13,0.546333333 -4.54747351e-13,1.22222222 L-4.54747351e-13,20.7777778 C-4.54747351e-13,21.4524444 0.546333333,22 1.22222222,22 L18.3333333,22 C19.0092222,22 19.5555556,21.4524444 19.5555556,20.7777778 L19.5555556,1.22222222 C19.5555556,0.547555556 19.0092222,0 18.3333333,0 L18.3333333,0 Z M17.1111111,19.5555556 L2.44444444,19.5555556 L2.44444444,2.44444444 L17.1111111,2.44444444 L17.1111111,19.5555556 L17.1111111,19.5555556 Z" id="Shape"></path>
                            </g>
                        </g>
                    </g>
                </g>
            </g>
        </g>
    </g>
</svg>