<?xml version="1.0" encoding="UTF-8" standalone="no"?>
<svg width="50px" height="50px" viewBox="0 0 50 50" version="1.1" xmlns="http://www.w3.org/2000/svg" xmlns:xlink="http://www.w3.org/1999/xlink">
    <!-- Generator: Sketch 3.7 (28169) - http://www.bohemiancoding.com/sketch -->
    <title>Shape</title>
    <desc>Created with Sketch.</desc>
    <defs></defs>
    <g id="Photos---Zoom" stroke="none" stroke-width="1" fill="none" fill-rule="evenodd">
        <g id="Desktop-HD" transform="translate(-109.000000, -1318.000000)" fill="#FFFFFF">
            <path d="M134.001302,1318 C120.192125,1318 109,1329.19213 109,1342.9987 C109,1356.80787 120.192125,1368 134.001302,1368 C147.805271,1368 159,1356.80787 159,1342.9987 C159,1329.19213 147.805271,1318 134.001302,1318 L134.001302,1318 Z M133.998698,1362.78933 C123.06958,1362.78933 114.208062,1353.93042 114.208062,1342.9987 C114.208062,1332.06698 123.066976,1323.20806 133.998698,1323.20806 C144.93042,1323.20806 153.791938,1332.06958 153.791938,1342.9987 C153.791938,1353.92782 144.927816,1362.78933 133.998698,1362.78933 L133.998698,1362.78933 Z M134.001302,1331.28056 L122.283162,1342.9987 L134.001302,1354.71684 L134.001302,1348.20676 L144.417426,1348.20676 L144.417426,1337.79064 L134.001302,1337.79064 L134.001302,1331.28056 L134.001302,1331.28056 Z" id="Shape"></path>
        </g>
    </g>
</svg>