<?xml version="1.0" encoding="UTF-8" standalone="no"?>
<svg width="23px" height="23px" viewBox="0 0 23 23" version="1.1" xmlns="http://www.w3.org/2000/svg" xmlns:xlink="http://www.w3.org/1999/xlink">
    <!-- Generator: Sketch 3.7 (28169) - http://www.bohemiancoding.com/sketch -->
    <title>Shape</title>
    <desc>Created with Sketch.</desc>
    <defs></defs>
    <g id="Accueil" stroke="none" stroke-width="1" fill="none" fill-rule="evenodd">
        <g id="Deskopt-HD" transform="translate(-582.000000, -20.000000)" fill="#CCCCCC">
            <g id="NAVIGATION-+-TOP" transform="translate(0.000000, -1.000000)">
                <g id="search" transform="translate(582.000000, 21.000000)">
                    <g id="Shape">
                        <path d="M15.3659244,9.87912137 C15.3659244,8.24851246 14.7863972,6.85368071 13.6273426,5.69462613 C12.468288,4.53557155 11.0734563,3.95604426 9.44284734,3.95604426 C7.81223843,3.95604426 6.41740669,4.53557155 5.25835211,5.69462613 C4.09929753,6.85368071 3.51977024,8.24851246 3.51977024,9.87912137 C3.51977024,11.5097303 4.09929753,12.904562 5.25835211,14.0636166 C6.41740669,15.2226712 7.81223843,15.8021985 9.44284734,15.8021985 C11.0734563,15.8021985 12.468288,15.2226712 13.6273426,14.0636166 C14.7863972,12.904562 15.3659244,11.5097303 15.3659244,9.87912137 L15.3659244,9.87912137 Z M21.6327517,22.0690257 C21.2978159,22.4039615 20.9011814,22.571429 20.4428481,22.571429 C19.9668862,22.571429 19.5702517,22.4039615 19.2529438,22.0690257 L14.7180883,17.5473905 C13.1403638,18.6403396 11.3819499,19.1868137 9.44284734,19.1868137 C8.18243075,19.1868137 6.97710194,18.9422222 5.82686168,18.45304 C4.67662143,17.9638571 3.68503515,17.302799 2.85210203,16.4698667 C2.01916971,15.6369336 1.35811166,14.6453473 0.86892867,13.495107 C0.379746471,12.3448668 0.135154976,11.139538 0.135154976,9.87912137 C0.135154976,8.61870478 0.379746471,7.41337596 0.86892867,6.26313571 C1.35811166,5.11289546 2.01916971,4.12130838 2.85210203,3.28837606 C3.68503515,2.45544295 4.67662143,1.79438568 5.82686168,1.30520269 C6.97710194,0.816019705 8.18243075,0.571429 9.44284734,0.571429 C10.7032639,0.571429 11.9085928,0.816019705 13.058833,1.30520269 C14.209074,1.79438568 15.2006603,2.45544295 16.0335927,3.28837606 C16.8665258,4.12130838 17.527583,5.11289546 18.016766,6.26313571 C18.505949,7.41337596 18.7505405,8.61870478 18.7505405,9.87912137 C18.7505405,11.8182239 18.2040656,13.576637 17.1111173,15.1543615 L21.6459728,19.6892178 C21.972095,20.0153393 22.1351558,20.4119738 22.1351558,20.8791214 C22.1351558,21.3374546 21.9676875,21.7340899 21.6327517,22.0690257 Z" transform="translate(11.135155, 11.571429) scale(-1, 1) translate(-11.135155, -11.571429) "></path>
                    </g>
                </g>
            </g>
        </g>
    </g>
</svg>