<?xml version="1.0" encoding="UTF-8" standalone="no"?>
<svg width="27px" height="26px" viewBox="0 0 27 26" version="1.1" xmlns="http://www.w3.org/2000/svg" xmlns:xlink="http://www.w3.org/1999/xlink">
    <!-- Generator: Sketch 3.7 (28169) - http://www.bohemiancoding.com/sketch -->
    <title>Shape</title>
    <desc>Created with Sketch.</desc>
    <defs></defs>
    <g id="Accueil" stroke="none" stroke-width="1" fill="none" fill-rule="evenodd">
        <g id="Deskopt-HD" transform="translate(-604.000000, -5868.000000)" fill="#F5F5F5">
            <g id="footer" transform="translate(-211.000000, 5726.038276)">
                <g id="sections" transform="translate(349.000000, 86.000000)">
                    <g id="contact" transform="translate(463.000000, 0.000000)">
                        <g id="text" transform="translate(0.904704, 52.000000)">
                            <g id="phone" transform="translate(2.000000, 0.000000)">
                                <path d="M15.5773954,18.5777875 C13.0768567,21.0767466 10.1798333,23.4682916 9.03460868,22.3230669 C7.39654256,20.6850008 6.38558565,19.2570242 2.77141469,22.1619457 C-0.841176649,25.0652875 1.934216,27.0019019 3.52173427,28.5878405 C5.35409367,30.4201999 12.1843713,28.685777 18.9356679,21.93606 C25.6853849,15.1847634 27.415069,8.35448573 25.58113,6.52212633 C23.9936117,4.93302844 22.0664751,2.15921541 19.1631332,5.77180675 C16.2582117,9.38439809 17.6846087,10.395355 19.3258341,12.0350007 C20.4663199,13.1802254 18.0763545,16.0772488 15.5773954,18.5777875 L15.5773954,18.5777875 Z" id="Shape" transform="translate(13.632969, 16.635518) rotate(-270.000000) translate(-13.632969, -16.635518) "></path>
                            </g>
                        </g>
                    </g>
                </g>
            </g>
        </g>
    </g>
</svg>