<?xml version="1.0" encoding="UTF-8" standalone="no"?>
<svg width="23px" height="23px" viewBox="0 0 23 23" version="1.1" xmlns="http://www.w3.org/2000/svg" xmlns:xlink="http://www.w3.org/1999/xlink">
    <!-- Generator: Sketch 3.7 (28169) - http://www.bohemiancoding.com/sketch -->
    <title>vimeo</title>
    <desc>Created with Sketch.</desc>
    <defs></defs>
    <g id="Accueil" stroke="none" stroke-width="1" fill="none" fill-rule="evenodd">
        <g id="Deskopt-HD" transform="translate(-1259.000000, -18.000000)" fill="#CCCCCC">
            <g id="NAVIGATION-+-TOP" transform="translate(0.000000, -1.000000)">
                <g id="social_nav" transform="translate(1110.000000, 19.000000)">
                    <g id="vimeo" transform="translate(148.305446, 0.178146)">
                        <g id="Group">
                            <g id="vimeo">
                                <path d="M22.8767723,2.41033014 C22.8767723,1.27733014 21.9582723,0.358830136 20.8252723,0.358830136 L2.92827226,0.358830136 C1.79527226,0.358830136 0.876772263,1.27733014 0.876772263,2.41033014 L0.876772263,20.3066426 C0.876772263,21.4403301 1.79527226,22.3588301 2.92827226,22.3588301 L20.8245848,22.3588301 C21.9582723,22.3588301 22.8767723,21.4403301 22.8767723,20.3073301 L22.8767723,2.41033014 L22.8767723,2.41033014 Z M18.2478348,9.10933014 C18.1584598,9.58301764 17.3334598,12.0703926 15.6140223,14.5453926 C14.9526473,15.4968926 14.1042723,16.3762051 13.0599598,17.0025176 C12.6742723,17.2335176 11.9138973,17.5243301 11.4078973,17.3070801 C10.4151473,16.8801426 10.0638348,15.1435176 9.77645976,13.9809551 C9.60664726,13.2941426 9.44714726,12.6437676 9.24020976,12.0449551 C9.08483476,11.5980801 9.00920976,11.1422676 8.76720976,10.7270176 C8.36983476,10.0457051 7.80058476,10.6995176 7.20177226,10.6101426 C6.97145976,10.5764551 6.92402226,10.4616426 6.80302226,10.2725801 C6.76727226,10.1921426 6.70402226,10.1013926 6.81127226,9.99345514 C7.65414726,9.30114264 8.38908476,8.49814264 9.37014726,7.91583014 C9.68570976,7.72745514 10.2226473,7.52601764 10.6571473,7.65320514 C11.0627723,7.77489264 11.3934598,8.32626764 11.5371473,8.78483014 C11.7042098,9.31764264 11.7949598,9.96183014 11.8808973,10.4808926 C12.0342098,11.4048926 11.9819598,12.7895176 12.6508973,13.5148301 C13.3940848,14.3192051 13.9605848,13.2027051 14.2630848,12.6334551 C14.5250223,12.1398301 14.7587723,11.6255801 14.7986473,11.1560176 C14.8962723,10.0340176 14.3675848,9.88139264 13.3617723,9.96114264 C13.9296473,8.17226764 15.6002723,7.42633014 16.0952723,7.34933014 C17.0584598,7.20151764 18.0140848,7.44076764 18.2168973,8.28776764 C18.2698348,8.48233014 18.3110848,8.76558014 18.2478348,9.10933014 L18.2478348,9.10933014 Z" id="Shape"></path>
                            </g>
                        </g>
                    </g>
                </g>
            </g>
        </g>
    </g>
</svg>