<?xml version="1.0" encoding="UTF-8" standalone="no"?>
<svg width="23px" height="23px" viewBox="0 0 23 23" version="1.1" xmlns="http://www.w3.org/2000/svg" xmlns:xlink="http://www.w3.org/1999/xlink">
    <!-- Generator: Sketch 3.7 (28169) - http://www.bohemiancoding.com/sketch -->
    <title>youtube</title>
    <desc>Created with Sketch.</desc>
    <defs></defs>
    <g id="Accueil" stroke="none" stroke-width="1" fill="none" fill-rule="evenodd">
        <g id="Deskopt-HD" transform="translate(-1301.000000, -19.000000)" fill="#CCCCCC">
            <g id="NAVIGATION-+-TOP" transform="translate(0.000000, -1.000000)">
                <g id="social_nav" transform="translate(1110.000000, 19.000000)">
                    <g id="youtube" transform="translate(191.922932, 1.178146)">
                        <g id="Group">
                            <g id="youtube">
                                <path d="M10.384,12.060125 L10.13925,12.060125 C9.9996875,12.060125 9.8855625,12.1749375 9.8855625,12.3145 L9.8855625,14.982 C9.8855625,15.1215625 9.807875,15.3195625 9.713,15.4240625 C9.713,15.4240625 9.560375,15.5890625 9.409125,15.5890625 L9.30875,15.5890625 C9.2668125,15.49075 9.2324375,15.3855625 9.2296875,15.3539375 C9.2283125,15.3223125 9.2269375,15.0046875 9.2269375,14.8644375 L9.2269375,12.3145 C9.2269375,12.1749375 9.1128125,12.060125 8.971875,12.060125 L8.7285,12.060125 C8.58825,12.060125 8.474125,12.1749375 8.474125,12.3145 L8.474125,15.090625 C8.474125,15.230875 8.4803125,15.459125 8.4871875,15.599375 C8.4871875,15.599375 8.5009375,15.8379375 8.5415,15.9630625 C8.6164375,16.1734375 8.7835,16.2724375 9.0261875,16.2724375 C9.3025625,16.2724375 9.695125,15.929375 9.695125,15.929375 C9.801,15.83725 9.8869375,15.863375 9.8869375,15.9885 C9.8869375,16.1129375 10.0010625,16.215375 10.140625,16.215375 L10.385375,16.215375 C10.52425,16.215375 10.63975,16.1005625 10.63975,15.9603125 L10.63975,12.3138125 C10.6390625,12.1749375 10.5235625,12.060125 10.384,12.060125 L10.384,12.060125 Z" id="Shape"></path>
                                <path d="M10.5620625,8.0073125 C10.8075,8.0073125 10.874875,7.6745625 10.874875,7.6745625 C10.902375,7.53775 10.9250625,7.310875 10.9250625,7.170625 L10.9250625,5.658125 C10.9250625,5.270375 10.8075,5.0758125 10.5620625,5.0758125 C10.318,5.0758125 10.2499375,5.4085625 10.2499375,5.4085625 C10.2224375,5.545375 10.19975,5.77225 10.19975,5.9125 L10.19975,7.4243125 C10.19975,7.81275 10.318,8.0073125 10.5620625,8.0073125 L10.5620625,8.0073125 Z" id="Shape"></path>
                                <path d="M8.10975,10.6390625 L5.9929375,10.6390625 C5.853375,10.6390625 5.73925,10.753875 5.73925,10.8934375 L5.73925,11.169125 C5.73925,11.309375 5.853375,11.4235 5.9929375,11.4235 L6.370375,11.4235 C6.5099375,11.4235 6.6240625,11.537625 6.6240625,11.6771875 L6.6240625,15.9603125 C6.6240625,16.1005625 6.738875,16.215375 6.879125,16.215375 L7.20775,16.215375 C7.348,16.215375 7.462125,16.1005625 7.462125,15.9603125 L7.462125,11.6771875 C7.462125,11.537625 7.57625,11.4235 7.7158125,11.4235 L8.10975,11.4235 C8.2493125,11.4235 8.364125,11.309375 8.364125,11.169125 L8.364125,10.8934375 C8.364125,10.753875 8.2493125,10.6390625 8.10975,10.6390625 L8.10975,10.6390625 Z" id="Shape"></path>
                                <path d="M13.42275,12.4788125 C13.3216875,12.1666875 13.1209375,12.0099375 12.8205,12.0099375 C12.544125,12.0099375 12.232,12.2890625 12.232,12.2890625 C12.1275,12.38325 12.0429375,12.34475 12.0429375,12.2051875 L12.0429375,10.89275 C12.0429375,10.7531875 11.928125,10.638375 11.7885625,10.638375 L11.5451875,10.638375 C11.4049375,10.638375 11.2908125,10.7531875 11.2908125,10.89275 L11.2908125,15.9603125 C11.2908125,16.1005625 11.4049375,16.215375 11.5451875,16.215375 L11.7885625,16.215375 C11.928125,16.215375 12.0429375,16.1239375 12.0429375,16.0139375 C12.0429375,15.9025625 12.1275,15.888125 12.232,15.983 C12.232,15.983 12.55375,16.2724375 12.8205,16.2724375 C13.1209375,16.2724375 13.2845625,16.01875 13.2845625,16.01875 C13.3601875,15.901875 13.4399375,15.7031875 13.459875,15.57875 C13.4811875,15.453625 13.498375,14.85275 13.498375,14.7131875 L13.498375,13.567125 C13.498375,13.426875 13.4949375,13.198625 13.4880625,13.0590625 C13.4880625,13.05975 13.47225,12.6465625 13.42275,12.4788125 L13.42275,12.4788125 Z M12.7455625,14.773 C12.7455625,14.91325 12.7235625,15.1394375 12.69675,15.27625 C12.69675,15.27625 12.6355625,15.588375 12.4183125,15.588375 C12.2945625,15.588375 12.2478125,15.5533125 12.2478125,15.5533125 C12.1350625,15.470125 12.0429375,15.2879375 12.0429375,15.148375 L12.0429375,13.124375 C12.0429375,12.9848125 12.1350625,12.8033125 12.2485,12.7208125 C12.2485,12.7208125 12.2945625,12.687125 12.4183125,12.687125 C12.6355625,12.687125 12.6974375,13.00475 12.6974375,13.00475 C12.72425,13.14225 12.7455625,13.3684375 12.7455625,13.508 L12.7455625,14.773 L12.7455625,14.773 Z" id="Shape"></path>
                                <path d="M16.10675,12.4355 C15.896375,12.1515625 15.596625,12.010625 15.2191875,12.010625 C14.834875,12.010625 14.535125,12.1515625 14.3165,12.4355 C14.157,12.6465625 14.1081875,13.1621875 14.1081875,13.1621875 C14.0944375,13.3010625 14.084125,13.53 14.084125,13.668875 L14.084125,14.6155625 C14.084125,14.7558125 14.0965,14.9840625 14.1109375,15.12225 C14.1109375,15.12225 14.166625,15.63925 14.326125,15.8475625 C14.5440625,16.1308125 14.8438125,16.273125 15.23775,16.273125 C15.631,16.273125 15.9396875,16.124625 16.1473125,15.822125 C16.2394375,15.68875 16.2586875,15.61725 16.2586875,15.61725 C16.2944375,15.4825 16.3274375,15.3168125 16.3315625,15.250125 C16.3356875,15.18275 16.3398125,14.8616875 16.3398125,14.832125 C16.3398125,14.801875 16.2256875,14.777125 16.086125,14.777125 L15.82625,14.777125 C15.6866875,14.777125 15.5698125,14.8823125 15.5670625,15.010875 C15.5643125,15.140125 15.5038125,15.3896875 15.4419375,15.514125 C15.4419375,15.514125 15.404125,15.5890625 15.2191875,15.5890625 C14.961375,15.5890625 14.8891875,15.2604375 14.8891875,15.2604375 C14.859625,15.123625 14.8355625,14.8974375 14.8355625,14.7571875 L14.8355625,14.529625 C14.8355625,14.3900625 14.9496875,14.27525 15.08925,14.27525 L16.0868125,14.27525 C16.226375,14.27525 16.3405,14.161125 16.3405,14.0215625 L16.3405,13.668875 C16.3405,13.53 16.3295,13.3010625 16.31575,13.1621875 C16.3150625,13.1621875 16.264875,12.6465625 16.10675,12.4355 L16.10675,12.4355 Z M15.3333125,13.6489375 L15.08925,13.6489375 C14.9496875,13.6489375 14.8355625,13.5623125 14.8355625,13.4564375 C14.8355625,13.35125 14.859625,13.15325 14.8891875,13.01575 C14.8891875,13.01575 14.961375,12.687125 15.213,12.687125 C15.461875,12.687125 15.5340625,13.01575 15.5340625,13.01575 C15.563625,13.1525625 15.588375,13.3505625 15.588375,13.4564375 C15.5876875,13.5623125 15.472875,13.6489375 15.3333125,13.6489375 L15.3333125,13.6489375 Z" id="Shape"></path>
                                <path d="M19.9485,0 L2.0515,0 C0.9185,0 0,0.9185 0,2.0515 L0,19.9478125 C0,21.0815 0.9185,22 2.0515,22 L19.9478125,22 C21.0815,22 22,21.0815 22,19.9485 L22,2.0515 C22,0.9185 21.0815,0 19.9485,0 L19.9485,0 Z M12.3124375,4.6963125 C12.3124375,4.5560625 12.42725,4.442625 12.5668125,4.442625 L12.816375,4.442625 C12.9559375,4.442625 13.07075,4.5560625 13.07075,4.6963125 L13.07075,7.533625 C13.07075,7.712375 13.07075,7.8051875 13.0796875,7.8299375 C13.096875,7.9481875 13.156,8.008 13.2584375,8.008 C13.4110625,8.008 13.567125,7.838875 13.567125,7.838875 C13.6613125,7.7364375 13.739,7.53775 13.739,7.3975 L13.739,4.6963125 C13.739,4.5560625 13.8538125,4.442625 13.9926875,4.442625 L14.245,4.442625 C14.3845625,4.442625 14.5000625,4.5560625 14.5000625,4.6963125 L14.5000625,8.3868125 C14.5000625,8.526375 14.3845625,8.6411875 14.245,8.6411875 L13.9926875,8.6411875 C13.8538125,8.6411875 13.739,8.526375 13.739,8.3868125 L13.739,8.182625 C13.4365,8.5305 13.14775,8.69825 12.87,8.69825 C12.6245625,8.69825 12.4554375,8.59925 12.379125,8.3868125 C12.3371875,8.259625 12.3248125,8.0169375 12.3248125,8.0169375 C12.3179375,7.8766875 12.31175,7.6484375 12.31175,7.5081875 L12.31175,4.6963125 L12.3124375,4.6963125 Z M9.4386875,5.8114375 C9.4386875,5.3625 9.515,5.0345625 9.67725,4.822125 C9.8883125,4.5354375 10.1839375,4.39175 10.56275,4.39175 C10.9443125,4.39175 11.23925,4.5354375 11.4503125,4.822125 C11.6098125,5.03525 11.66275,5.55775 11.66275,5.55775 C11.6765,5.6973125 11.6868125,5.9255625 11.6868125,6.065125 L11.6868125,7.282 C11.6868125,7.7275 11.6105,8.0595625 11.4503125,8.26925 C11.23925,8.5559375 10.9443125,8.6989375 10.56275,8.6989375 C10.1839375,8.6989375 9.8883125,8.5559375 9.67725,8.26925 C9.5156875,8.0595625 9.464125,7.5356875 9.464125,7.5356875 C9.450375,7.3968125 9.4386875,7.1685625 9.4386875,7.0283125 L9.4386875,5.8114375 L9.4386875,5.8114375 Z M6.7705,3.0064375 L7.15,3.0064375 C7.2895625,3.0064375 7.4339375,3.1164375 7.470375,3.251875 L7.9365,4.9740625 C7.973625,5.1088125 8.0320625,5.1088125 8.0664375,4.973375 L8.514,3.2525625 C8.5490625,3.117125 8.69275,3.0064375 8.8323125,3.0064375 L9.17675,3.0064375 C9.317,3.0064375 9.398125,3.1164375 9.3575625,3.2498125 L8.4899375,6.1166875 C8.449375,6.2500625 8.416375,6.474875 8.416375,6.6144375 L8.416375,8.3875 C8.416375,8.5270625 8.30225,8.641875 8.1626875,8.641875 L7.8271875,8.641875 C7.687625,8.641875 7.5735,8.5270625 7.5735,8.3875 L7.5735,6.359375 C7.4971875,5.955125 7.3280625,5.3625 7.057875,4.576 C6.879125,4.0535 6.6,3.24775 6.6,3.24775 C6.5539375,3.114375 6.6309375,3.0064375 6.7705,3.0064375 L6.7705,3.0064375 Z M17.0506875,16.4649375 C16.897375,17.1276875 16.355625,17.6171875 15.703875,17.689375 C14.15975,17.86125 12.5956875,17.8619375 11.0391875,17.86125 C9.4813125,17.8619375 7.918625,17.86125 6.373125,17.689375 C5.7220625,17.6171875 5.179625,17.1276875 5.0276875,16.4649375 C4.8104375,15.5216875 4.8104375,14.4918125 4.8104375,13.519 C4.8104375,12.5489375 4.8131875,11.5190625 5.0290625,10.575125 C5.182375,9.912375 5.7234375,9.42425 6.375875,9.351375 C7.921375,9.1788125 9.4840625,9.178125 11.04125,9.1788125 C12.5984375,9.178125 14.161125,9.1788125 15.706625,9.351375 C16.3576875,9.42425 16.9008125,9.912375 17.05275,10.575125 C17.2693125,11.5190625 17.2679375,12.5489375 17.2679375,13.519 C17.2679375,14.4918125 17.26725,15.5216875 17.0506875,16.4649375 L17.0506875,16.4649375 Z" id="Shape"></path>
                            </g>
                        </g>
                    </g>
                </g>
            </g>
        </g>
    </g>
</svg>